KayPhoDu-Regular.ufo
<glyph name="exclam" format="2">
  <advance width="520"/>
  <unicode hex="0021"/>
  <outline>
    <component base="period" xOffset="10"/>
    <contour>
      <point x="240" y="310" type="line"/>
      <point x="280" y="310" type="line"/>
      <point x="360" y="1472" type="line"/>
      <point x="360" y="1532"/>
      <point x="335" y="1574"/>
      <point x="260" y="1574" type="curve" smooth="yes"/>
      <point x="185" y="1574"/>
      <point x="160" y="1532"/>
      <point x="160" y="1472" type="curve"/>
    </contour>
  </outline>
</glyph>
<glyph name="percent" format="2">
  <advance width="1364"/>
  <unicode hex="0025"/>
  <outline>
    <component base="fraction" xOffset="107"/>
    <contour>
      <point x="341" y="723" type="curve"/>
      <point x="484" y="723"/>
      <point x="573" y="852"/>
      <point x="573" y="1090" type="curve" smooth="yes"/>
      <point x="573" y="1329"/>
      <point x="484" y="1458"/>
      <point x="341" y="1458" type="curve"/>
      <point x="197" y="1458"/>
      <point x="108" y="1329"/>
      <point x="108" y="1090" type="curve" smooth="yes"/>
      <point x="108" y="852"/>
      <point x="197" y="723"/>
    </contour>
    <contour>
      <point x="341" y="823" type="curve" smooth="yes"/>
      <point x="255" y="823"/>
      <point x="212" y="928"/>
      <point x="212" y="1090" type="curve" smooth="yes"/>
      <point x="212" y="1252"/>
      <point x="255" y="1358"/>
      <point x="341" y="1358" type="curve" smooth="yes"/>
      <point x="426" y="1358"/>
      <point x="469" y="1252"/>
      <point x="469" y="1090" type="curve" smooth="yes"/>
      <point x="469" y="928"/>
      <point x="426" y="823"/>
    </contour>
    <contour>
      <point x="1024" y="-12" type="curve"/>
      <point x="1167" y="-12"/>
      <point x="1256" y="117"/>
      <point x="1256" y="355" type="curve" smooth="yes"/>
      <point x="1256" y="594"/>
      <point x="1167" y="723"/>
      <point x="1024" y="723" type="curve"/>
      <point x="880" y="723"/>
      <point x="791" y="594"/>
      <point x="791" y="355" type="curve" smooth="yes"/>
      <point x="791" y="117"/>
      <point x="880" y="-12"/>
    </contour>
    <contour>
      <point x="1024" y="88" type="curve" smooth="yes"/>
      <point x="938" y="88"/>
      <point x="895" y="193"/>
      <point x="895" y="355" type="curve" smooth="yes"/>
      <point x="895" y="517"/>
      <point x="938" y="623"/>
      <point x="1024" y="623" type="curve" smooth="yes"/>
      <point x="1109" y="623"/>
      <point x="1152" y="517"/>
      <point x="1152" y="355" type="curve" smooth="yes"/>
      <point x="1152" y="193"/>
      <point x="1109" y="88"/>
    </contour>
  </outline>
</glyph>
<glyph name="plus" format="2">
  <advance width="1180"/>
  <unicode hex="002B"/>
  <outline>
    <contour>
      <point x="160" y="660" type="line"/>
      <point x="1020" y="660" type="line"/>
      <point x="1020" y="784" type="line"/>
      <point x="160" y="784" type="line"/>
    </contour>
    <contour>
      <point x="528" y="292" type="line"/>
      <point x="652" y="292" type="line"/>
      <point x="652" y="1152" type="line"/>
      <point x="528" y="1152" type="line"/>
    </contour>
  </outline>
</glyph>
<glyph name="hyphen" format="2">
  <advance width="1180"/>
  <unicode hex="002D"/>
  <outline>
    <contour>
      <point x="128" y="473" type="line"/>
      <point x="1052" y="473" type="line"/>
      <point x="1052" y="577" type="line"/>
      <point x="128" y="577" type="line"/>
    </contour>
  </outline>
</glyph>
<glyph name="slash" format="2">
  <advance width="1016"/>
  <unicode hex="002F"/>
  <outline>
    <contour>
      <point x="204" y="0" type="line"/>
      <point x="952" y="1446" type="line"/>
      <point x="812" y="1446" type="line"/>
      <point x="64" y="0" type="line"/>
    </contour>
  </outline>
</glyph>
<glyph name="zero" format="2">
  <advance width="1106"/>
  <unicode hex="0030"/>
  <outline>
    <contour>
      <point x="553" y="-12" type="curve"/>
      <point x="840" y="-12"/>
      <point x="998" y="246"/>
      <point x="998" y="722" type="curve" smooth="yes"/>
      <point x="998" y="1199"/>
      <point x="840" y="1458"/>
      <point x="553" y="1458" type="curve"/>
      <point x="266" y="1458"/>
      <point x="108" y="1199"/>
      <point x="108" y="722" type="curve" smooth="yes"/>
      <point x="108" y="246"/>
      <point x="266" y="-12"/>
    </contour>
    <contour>
      <point x="553" y="112" type="curve" smooth="yes"/>
      <point x="341" y="112"/>
      <point x="236" y="323"/>
      <point x="236" y="722" type="curve" smooth="yes"/>
      <point x="236" y="1121"/>
      <point x="341" y="1334"/>
      <point x="553" y="1334" type="curve" smooth="yes"/>
      <point x="765" y="1334"/>
      <point x="870" y="1121"/>
      <point x="870" y="722" type="curve" smooth="yes"/>
      <point x="870" y="323"/>
      <point x="765" y="112"/>
    </contour>
  </outline>
</glyph>
<glyph name="three" format="2">
  <advance width="1106" height="2352"/>
  <unicode hex="0033"/>
  <outline>
    <contour>
      <point x="193" y="1317" type="curve"/>
      <point x="271" y="1218" type="line"/>
      <point x="329" y="1282"/>
      <point x="433" y="1334"/>
      <point x="553" y="1334" type="curve" smooth="yes"/>
      <point x="742" y="1334"/>
      <point x="824" y="1235"/>
      <point x="824" y="1093" type="curve" smooth="yes"/>
      <point x="824" y="981"/>
      <point x="769" y="837"/>
      <point x="520" y="837" type="curve"/>
      <point x="615" y="733" type="line"/>
      <point x="871" y="773"/>
      <point x="952" y="933"/>
      <point x="952" y="1093" type="curve" smooth="yes"/>
      <point x="952" y="1290"/>
      <point x="823" y="1458"/>
      <point x="553" y="1458" type="curve" smooth="yes"/>
      <point x="395" y="1458"/>
      <point x="270" y="1393"/>
    </contour>
    <contour>
      <point x="215" y="333" type="curve"/>
      <point x="108" y="267" type="line"/>
      <point x="187" y="98"/>
      <point x="338" y="-12"/>
      <point x="553" y="-12" type="curve" smooth="yes"/>
      <point x="840" y="-12"/>
      <point x="998" y="203"/>
      <point x="998" y="416" type="curve" smooth="yes"/>
      <point x="998" y="629"/>
      <point x="874" y="837"/>
      <point x="550" y="837" type="curve" smooth="yes"/>
      <point x="530" y="837"/>
      <point x="385" y="837"/>
      <point x="368" y="837" type="curve"/>
      <point x="368" y="713" type="line"/>
      <point x="386" y="713"/>
      <point x="533" y="713"/>
      <point x="550" y="713" type="curve" smooth="yes"/>
      <point x="822" y="713"/>
      <point x="870" y="555"/>
      <point x="870" y="416" type="curve" smooth="yes"/>
      <point x="870" y="277"/>
      <point x="780" y="112"/>
      <point x="553" y="112" type="curve" smooth="yes"/>
      <point x="389" y="112"/>
      <point x="278" y="190"/>
    </contour>
  </outline>
</glyph>
<glyph name="four" format="2">
  <advance width="1106"/>
  <unicode hex="0034"/>
  <outline>
    <contour>
      <point x="108" y="362" type="line"/>
      <point x="175" y="362" type="line"/>
      <point x="749" y="1244" type="line"/>
      <point x="864" y="1244" type="line"/>
      <point x="864" y="1458" type="line"/>
      <point x="741" y="1458" type="line"/>
      <point x="108" y="486" type="line"/>
    </contour>
    <contour>
      <point x="108" y="362" type="line"/>
      <point x="1030" y="362" type="line"/>
      <point x="1030" y="486" type="line"/>
      <point x="108" y="486" type="line"/>
    </contour>
    <contour>
      <point x="736" y="0" type="line"/>
      <point x="864" y="0" type="line"/>
      <point x="864" y="1365" type="line"/>
      <point x="736" y="1365" type="line"/>
    </contour>
  </outline>
</glyph>
<glyph name="six" format="2">
  <advance width="1106"/>
  <unicode hex="0036"/>
  <outline>
    <contour>
      <point x="571" y="-12" type="curve" smooth="yes"/>
      <point x="840" y="-12"/>
      <point x="998" y="212"/>
      <point x="998" y="449" type="curve" smooth="yes"/>
      <point x="998" y="685"/>
      <point x="859" y="876"/>
      <point x="571" y="876" type="curve" smooth="yes"/>
      <point x="418" y="876"/>
      <point x="308" y="822"/>
      <point x="208" y="749" type="curve"/>
      <point x="208" y="613" type="line"/>
      <point x="306" y="692"/>
      <point x="432" y="752"/>
      <point x="571" y="752" type="curve" smooth="yes"/>
      <point x="794" y="752"/>
      <point x="870" y="611"/>
      <point x="870" y="449" type="curve" smooth="yes"/>
      <point x="870" y="286"/>
      <point x="775" y="112"/>
      <point x="571" y="112" type="curve" smooth="yes"/>
      <point x="402" y="112"/>
      <point x="236" y="240"/>
      <point x="236" y="722" type="curve" smooth="yes"/>
      <point x="236" y="1182"/>
      <point x="398" y="1334"/>
      <point x="600" y="1334" type="curve" smooth="yes"/>
      <point x="705" y="1334"/>
      <point x="791" y="1313"/>
      <point x="891" y="1230" type="curve"/>
      <point x="961" y="1332" type="line"/>
      <point x="840" y="1427"/>
      <point x="740" y="1458"/>
      <point x="600" y="1458" type="curve"/>
      <point x="322" y="1458"/>
      <point x="108" y="1254"/>
      <point x="108" y="722" type="curve" smooth="yes"/>
      <point x="108" y="166"/>
      <point x="334" y="-12"/>
    </contour>
  </outline>
</glyph>
<glyph name="seven" format="2">
  <advance width="1106"/>
  <unicode hex="0037"/>
  <outline>
    <contour>
      <point x="1010" y="1446" type="line"/>
      <point x="930" y="1446" type="line"/>
      <point x="280" y="0" type="line"/>
      <point x="416" y="0" type="line"/>
      <point x="1010" y="1322" type="line"/>
    </contour>
    <contour>
      <point x="1010" y="1446" type="line"/>
      <point x="118" y="1446" type="line"/>
      <point x="118" y="1322" type="line"/>
      <point x="1010" y="1322" type="line"/>
    </contour>
  </outline>
</glyph>
<glyph name="eight" format="2">
  <advance width="1106"/>
  <unicode hex="0038"/>
  <outline>
    <contour>
      <point x="632" y="747" type="line"/>
      <point x="878" y="824"/>
      <point x="962" y="943"/>
      <point x="962" y="1112" type="curve" smooth="yes"/>
      <point x="962" y="1282"/>
      <point x="813" y="1458"/>
      <point x="553" y="1458" type="curve" smooth="yes"/>
      <point x="293" y="1458"/>
      <point x="144" y="1280"/>
      <point x="144" y="1112" type="curve" smooth="yes"/>
      <point x="144" y="935"/>
      <point x="221" y="838"/>
      <point x="516" y="720" type="curve" smooth="yes"/>
      <point x="810" y="602"/>
      <point x="870" y="505"/>
      <point x="870" y="370" type="curve" smooth="yes"/>
      <point x="870" y="235"/>
      <point x="770" y="112"/>
      <point x="553" y="112" type="curve" smooth="yes"/>
      <point x="335" y="112"/>
      <point x="236" y="235"/>
      <point x="236" y="370" type="curve" smooth="yes"/>
      <point x="236" y="505"/>
      <point x="294" y="613"/>
      <point x="581" y="719" type="curve"/>
      <point x="488" y="803" type="line"/>
      <point x="241" y="719"/>
      <point x="108" y="574"/>
      <point x="108" y="370" type="curve"/>
      <point x="108" y="166"/>
      <point x="266" y="-12"/>
      <point x="553" y="-12" type="curve" smooth="yes"/>
      <point x="840" y="-12"/>
      <point x="998" y="166"/>
      <point x="998" y="370" type="curve" smooth="yes"/>
      <point x="998" y="574"/>
      <point x="878" y="698"/>
      <point x="584" y="817" type="curve" smooth="yes"/>
      <point x="291" y="936"/>
      <point x="272" y="1010"/>
      <point x="272" y="1112" type="curve" smooth="yes"/>
      <point x="272" y="1223"/>
      <point x="373" y="1334"/>
      <point x="553" y="1334" type="curve" smooth="yes"/>
      <point x="733" y="1334"/>
      <point x="834" y="1223"/>
      <point x="834" y="1112" type="curve" smooth="yes"/>
      <point x="834" y="1010"/>
      <point x="807" y="923"/>
      <point x="536" y="828" type="curve"/>
    </contour>
  </outline>
</glyph>
<glyph name="less" format="2">
  <advance width="1180"/>
  <unicode hex="003C"/>
  <outline>
    <contour>
      <point x="1020" y="325" type="line"/>
      <point x="1020" y="458" type="line"/>
      <point x="237" y="738" type="line"/>
      <point x="237" y="708" type="line"/>
      <point x="1020" y="988" type="line"/>
      <point x="1020" y="1121" type="line"/>
      <point x="160" y="805" type="line"/>
      <point x="160" y="641" type="line"/>
    </contour>
  </outline>
</glyph>
<glyph name="equal" format="2">
  <advance width="1180"/>
  <unicode hex="003D"/>
  <outline>
    <contour>
      <point x="160" y="826" type="line"/>
      <point x="1020" y="826" type="line"/>
      <point x="1020" y="950" type="line"/>
      <point x="160" y="950" type="line"/>
    </contour>
    <contour>
      <point x="160" y="494" type="line"/>
      <point x="1020" y="494" type="line"/>
      <point x="1020" y="618" type="line"/>
      <point x="160" y="618" type="line"/>
    </contour>
  </outline>
</glyph>
<glyph name="greater" format="2">
  <advance width="1180"/>
  <unicode hex="003E"/>
  <outline>
    <contour>
      <point x="160" y="325" type="line"/>
      <point x="1020" y="641" type="line"/>
      <point x="1020" y="805" type="line"/>
      <point x="160" y="1121" type="line"/>
      <point x="160" y="988" type="line"/>
      <point x="943" y="708" type="line"/>
      <point x="943" y="738" type="line"/>
      <point x="160" y="458" type="line"/>
    </contour>
  </outline>
</glyph>
<glyph name="question" format="2">
  <advance width="1096"/>
  <unicode hex="003F"/>
  <outline>
    <component base="period" xOffset="310"/>
    <contour>
      <point x="496" y="308" type="line"/>
      <point x="624" y="308" type="line"/>
      <point x="624" y="507" type="line" smooth="yes"/>
      <point x="624" y="640"/>
      <point x="717" y="734"/>
      <point x="806" y="836" type="curve" smooth="yes"/>
      <point x="889" y="930"/>
      <point x="968" y="1030"/>
      <point x="968" y="1175" type="curve" smooth="yes"/>
      <point x="968" y="1435"/>
      <point x="801" y="1574"/>
      <point x="560" y="1574" type="curve" smooth="yes"/>
      <point x="319" y="1574"/>
      <point x="128" y="1407"/>
      <point x="128" y="1085" type="curve" smooth="yes"/>
      <point x="128" y="1061"/>
      <point x="128" y="1058"/>
      <point x="128" y="1035" type="curve"/>
      <point x="153" y="1035"/>
      <point x="232" y="1035"/>
      <point x="256" y="1035" type="curve"/>
      <point x="256" y="1059"/>
      <point x="256" y="1062"/>
      <point x="256" y="1084" type="curve" smooth="yes"/>
      <point x="256" y="1349"/>
      <point x="402" y="1446"/>
      <point x="560" y="1446" type="curve" smooth="yes"/>
      <point x="718" y="1446"/>
      <point x="840" y="1368"/>
      <point x="840" y="1175" type="curve" smooth="yes"/>
      <point x="840" y="1072"/>
      <point x="773" y="991"/>
      <point x="697" y="906" type="curve" smooth="yes"/>
      <point x="603" y="799"/>
      <point x="496" y="686"/>
      <point x="496" y="517" type="curve" smooth="yes"/>
    </contour>
  </outline>
</glyph>
<glyph name="at" format="2">
  <advance width="1702"/>
  <unicode hex="0040"/>
  <outline>
    <component base="_lathalfserifSE" xOffset="307"/>
    <component base="_latstemSE" xOffset="257"/>
    <component base="_latstemNE" xOffset="257"/>
    <component base="_latroundarchW" xOffset="357"/>
    <component base="_latroundbowlW" xOffset="357"/>
    <contour>
      <point x="1531" y="-139" type="curve"/>
      <point x="1389" y="-139" type="line"/>
      <point x="1278" y="-323"/>
      <point x="1138" y="-401"/>
      <point x="877" y="-401" type="curve" smooth="yes"/>
      <point x="835" y="-401" type="line" smooth="yes"/>
      <point x="474" y="-401"/>
      <point x="256" y="-118"/>
      <point x="256" y="423" type="curve" smooth="yes"/>
      <point x="256" y="635" type="line" smooth="yes"/>
      <point x="256" y="1177"/>
      <point x="474" y="1444"/>
      <point x="835" y="1444" type="curve" smooth="yes"/>
      <point x="877" y="1444" type="line" smooth="yes"/>
      <point x="1248" y="1444"/>
      <point x="1436" y="1207"/>
      <point x="1436" y="665" type="curve" smooth="yes"/>
      <point x="1436" y="239"/>
      <point x="1436" y="122"/>
      <point x="1436" y="0" type="curve"/>
      <point x="1564" y="0" type="line"/>
      <point x="1564" y="125"/>
      <point x="1564" y="238"/>
      <point x="1564" y="678" type="curve" smooth="yes"/>
      <point x="1564" y="1289"/>
      <point x="1305" y="1568"/>
      <point x="884" y="1568" type="curve" smooth="yes"/>
      <point x="830" y="1568" type="line" smooth="yes"/>
      <point x="418" y="1568"/>
      <point x="128" y="1259"/>
      <point x="128" y="648" type="curve" smooth="yes"/>
      <point x="128" y="411" type="line" smooth="yes"/>
      <point x="128" y="-202"/>
      <point x="418" y="-525"/>
      <point x="830" y="-525" type="curve" smooth="yes"/>
      <point x="884" y="-525" type="line" smooth="yes"/>
      <point x="1204" y="-525"/>
      <point x="1390" y="-408"/>
    </contour>
  </outline>
</glyph>
<glyph name="D" format="2">
  <advance width="1224"/>
  <unicode hex="0044"/>
  <outline>
    <component base="_latserifSW" xOffset="16"/>
    <component base="_latstemSW" xOffset="16"/>
    <component base="_latstemNW" xOffset="16"/>
    <component base="_latstemascW" xOffset="16" yOffset="-128"/>
    <component base="_latserifNW" xOffset="16" yOffset="408"/>
    <contour>
      <point x="446" y="0" type="line"/>
      <point x="527" y="0" type="line" smooth="yes"/>
      <point x="895" y="0"/>
      <point x="1100" y="236"/>
      <point x="1100" y="710" type="curve" smooth="yes"/>
      <point x="1100" y="742" type="line"/>
      <point x="972" y="742" type="line"/>
      <point x="972" y="720" type="line" smooth="yes"/>
      <point x="972" y="335"/>
      <point x="834" y="124"/>
      <point x="521" y="124" type="curve" smooth="yes"/>
      <point x="446" y="124" type="line"/>
    </contour>
    <contour>
      <point x="972" y="732" type="line"/>
      <point x="1100" y="732" type="line"/>
      <point x="1100" y="764" type="line" smooth="yes"/>
      <point x="1100" y="1237"/>
      <point x="895" y="1446"/>
      <point x="527" y="1446" type="curve" smooth="yes"/>
      <point x="446" y="1446" type="line"/>
      <point x="446" y="1322" type="line"/>
      <point x="521" y="1322" type="line" smooth="yes"/>
      <point x="834" y="1322"/>
      <point x="972" y="1138"/>
      <point x="972" y="753" type="curve" smooth="yes"/>
    </contour>
  </outline>
</glyph>
<glyph name="I" format="2">
  <advance width="864"/>
  <unicode hex="0049"/>
  <anchor x="432" y="1460" name="U"/>
  <outline>
    <component base="_latstemSW" xOffset="160"/>
    <component base="_latstemNW" xOffset="160"/>
    <component base="_latstemascW" xOffset="160" yOffset="-128"/>
    <contour>
      <point x="116" y="0" type="line"/>
      <point x="748" y="0" type="line"/>
      <point x="748" y="124" type="line"/>
      <point x="116" y="124" type="line"/>
    </contour>
    <contour>
      <point x="116" y="1322" type="line"/>
      <point x="748" y="1322" type="line"/>
      <point x="748" y="1446" type="line"/>
      <point x="116" y="1446" type="line"/>
    </contour>
  </outline>
</glyph>
<glyph name="J" format="2">
  <advance width="830"/>
  <unicode hex="004A"/>
  <outline>
    <component base="_latstemNW" xOffset="346"/>
    <component base="_latstemascW" xOffset="346" yOffset="-128"/>
    <contour>
      <point x="64" y="0" type="line"/>
      <point x="270" y="0" type="line" smooth="yes"/>
      <point x="553" y="0"/>
      <point x="682" y="217"/>
      <point x="682" y="471" type="curve" smooth="yes"/>
      <point x="682" y="603" type="line"/>
      <point x="554" y="603" type="line"/>
      <point x="554" y="481" type="line" smooth="yes"/>
      <point x="554" y="286"/>
      <point x="481" y="124"/>
      <point x="250" y="124" type="curve" smooth="yes"/>
      <point x="64" y="124" type="line"/>
    </contour>
    <contour>
      <point x="95" y="1322" type="line"/>
      <point x="603" y="1322" type="line"/>
      <point x="603" y="1446" type="line"/>
      <point x="95" y="1446" type="line"/>
    </contour>
  </outline>
</glyph>
<glyph name="K" format="2">
  <advance width="1199"/>
  <unicode hex="004B"/>
  <outline>
    <component base="_latserifSW" xOffset="16"/>
    <component base="_latstemSW" xOffset="16"/>
    <component base="_latstemNW" xOffset="16"/>
    <component base="_latstemascW" xOffset="16" yOffset="-128"/>
    <component base="_latserifNW" xOffset="16" yOffset="408"/>
    <contour>
      <point x="493" y="725" type="line"/>
      <point x="603" y="725" type="line"/>
      <point x="1056" y="1374" type="line"/>
      <point x="1056" y="1446" type="line"/>
      <point x="959" y="1446" type="line"/>
      <point x="493" y="778" type="line"/>
    </contour>
    <contour>
      <point x="1007" y="0" type="line"/>
      <point x="1167" y="0" type="line"/>
      <point x="1167" y="124" type="line"/>
      <point x="1007" y="124" type="line"/>
    </contour>
    <contour>
      <point x="959" y="0" type="line"/>
      <point x="1032" y="0" type="line"/>
      <point x="1032" y="124" type="line"/>
      <point x="621" y="768" type="line"/>
      <point x="507" y="768" type="line"/>
      <point x="507" y="717" type="line"/>
    </contour>
    <contour>
      <point x="321" y="696" type="line"/>
      <point x="585" y="696" type="line"/>
      <point x="585" y="820" type="line"/>
      <point x="321" y="820" type="line"/>
    </contour>
    <contour>
      <point x="735" y="1322" type="line"/>
      <point x="1151" y="1322" type="line"/>
      <point x="1151" y="1446" type="line"/>
      <point x="735" y="1446" type="line"/>
    </contour>
  </outline>
</glyph>
<glyph name="P" format="2">
  <advance width="1118"/>
  <unicode hex="0050"/>
  <outline>
    <component base="_latserifSW" xOffset="16"/>
    <component base="_latstemSW" xOffset="16"/>
    <component base="_latstemNW" xOffset="16"/>
    <component base="_latstemascW" xOffset="16" yOffset="-128"/>
    <component base="_lathalfserifascW" xOffset="16" yOffset="-128"/>
    <contour>
      <point x="288" y="600" type="line"/>
      <point x="527" y="600" type="line" smooth="yes"/>
      <point x="850" y="600"/>
      <point x="1010" y="778"/>
      <point x="1010" y="1011" type="curve" smooth="yes"/>
      <point x="1010" y="1043" type="line"/>
      <point x="882" y="1043" type="line"/>
      <point x="882" y="1021" type="line" smooth="yes"/>
      <point x="882" y="836"/>
      <point x="764" y="724"/>
      <point x="521" y="724" type="curve" smooth="yes"/>
      <point x="288" y="724" type="line"/>
    </contour>
    <contour>
      <point x="882" y="1033" type="line"/>
      <point x="1010" y="1033" type="line"/>
      <point x="1010" y="1065" type="line" smooth="yes"/>
      <point x="1010" y="1298"/>
      <point x="850" y="1446"/>
      <point x="527" y="1446" type="curve" smooth="yes"/>
      <point x="288" y="1446" type="line"/>
      <point x="288" y="1322" type="line"/>
      <point x="521" y="1322" type="line" smooth="yes"/>
      <point x="764" y="1322"/>
      <point x="882" y="1239"/>
      <point x="882" y="1054" type="curve" smooth="yes"/>
    </contour>
  </outline>
</glyph>
<glyph name="R" format="2">
  <advance width="1140"/>
  <unicode hex="0052"/>
  <outline>
    <component base="_latserifSW" xOffset="16"/>
    <component base="_latstemSW" xOffset="16"/>
    <component base="_latstemNW" xOffset="16"/>
    <component base="_latstemascW" xOffset="16" yOffset="-128"/>
    <component base="_lathalfserifascW" xOffset="16" yOffset="-128"/>
    <contour>
      <point x="910" y="0" type="line"/>
      <point x="986" y="0" type="line"/>
      <point x="986" y="124" type="line"/>
      <point x="651" y="745" type="line"/>
      <point x="540" y="745" type="line"/>
      <point x="540" y="690" type="line"/>
    </contour>
    <contour>
      <point x="952" y="0" type="line"/>
      <point x="1094" y="0" type="line"/>
      <point x="1094" y="124" type="line"/>
      <point x="952" y="124" type="line"/>
    </contour>
    <contour>
      <point x="288" y="656" type="line"/>
      <point x="527" y="656" type="line" smooth="yes"/>
      <point x="840" y="656"/>
      <point x="1010" y="825"/>
      <point x="1010" y="1040" type="curve" smooth="yes"/>
      <point x="1010" y="1072" type="line"/>
      <point x="882" y="1072" type="line"/>
      <point x="882" y="1050" type="line" smooth="yes"/>
      <point x="882" y="864"/>
      <point x="743" y="780"/>
      <point x="521" y="780" type="curve" smooth="yes"/>
      <point x="288" y="780" type="line"/>
    </contour>
    <contour>
      <point x="882" y="1062" type="line"/>
      <point x="1010" y="1062" type="line"/>
      <point x="1010" y="1094" type="line" smooth="yes"/>
      <point x="1010" y="1309"/>
      <point x="840" y="1446"/>
      <point x="527" y="1446" type="curve" smooth="yes"/>
      <point x="288" y="1446" type="line"/>
      <point x="288" y="1322" type="line"/>
      <point x="521" y="1322" type="line" smooth="yes"/>
      <point x="754" y="1322"/>
      <point x="882" y="1250"/>
      <point x="882" y="1083" type="curve" smooth="yes"/>
    </contour>
  </outline>
</glyph>
<glyph name="T" format="2">
  <advance width="1232"/>
  <unicode hex="0054"/>
  <outline>
    <component base="_latserifSW" xOffset="344"/>
    <component base="_latstemSW" xOffset="344"/>
    <component base="_latstemNW" xOffset="344"/>
    <component base="_latstemascW" xOffset="344" yOffset="-128"/>
    <component base="_latserifNW" xOffset="344" yOffset="408"/>
    <contour>
      <point x="136" y="1322" type="line"/>
      <point x="1096" y="1322" type="line"/>
      <point x="1096" y="1446" type="line"/>
      <point x="136" y="1446" type="line"/>
    </contour>
    <contour>
      <point x="1032" y="1110" type="line"/>
      <point x="1160" y="1110" type="line"/>
      <point x="1160" y="1446" type="line"/>
      <point x="1032" y="1446" type="line"/>
    </contour>
    <contour>
      <point x="72" y="1110" type="line"/>
      <point x="200" y="1110" type="line"/>
      <point x="200" y="1446" type="line"/>
      <point x="72" y="1446" type="line"/>
    </contour>
  </outline>
</glyph>
<glyph name="W" format="2">
  <advance width="1744"/>
  <unicode hex="0057"/>
  <outline>
    <component base="_latserifNW" xOffset="-24" yOffset="408"/>
    <component base="_latserifNE" xOffset="588" yOffset="408"/>
    <contour>
      <point x="433" y="0" type="line"/>
      <point x="612" y="0" type="line"/>
      <point x="933" y="1446" type="line"/>
      <point x="816" y="1446" type="line"/>
      <point x="525" y="159" type="line"/>
      <point x="262" y="1446" type="line"/>
      <point x="135" y="1446" type="line"/>
    </contour>
    <contour>
      <point x="1132" y="0" type="line"/>
      <point x="1311" y="0" type="line"/>
      <point x="1608" y="1446" type="line"/>
      <point x="1481" y="1446" type="line"/>
      <point x="1219" y="159" type="line"/>
      <point x="930" y="1446" type="line"/>
      <point x="813" y="1446" type="line"/>
    </contour>
  </outline>
</glyph>
<glyph name="X" format="2">
  <advance width="1320"/>
  <unicode hex="0058"/>
  <outline>
    <component base="_latserifSW"/>
    <component base="_latserifSE" xOffset="140"/>
    <component base="_latserifNW" xOffset="30" yOffset="408"/>
    <component base="_latserifNE" xOffset="110" yOffset="408"/>
    <contour>
      <point x="1019" y="62" type="line"/>
      <point x="1165" y="62" type="line"/>
      <point x="331" y="1384" type="line"/>
      <point x="185" y="1384" type="line"/>
    </contour>
    <contour>
      <point x="153" y="62" type="line"/>
      <point x="298" y="62" type="line"/>
      <point x="669" y="665" type="line"/>
      <point x="597" y="783" type="line"/>
    </contour>
    <contour>
      <point x="722" y="718" type="line"/>
      <point x="1134" y="1384" type="line"/>
      <point x="989" y="1384" type="line"/>
      <point x="650" y="836" type="line"/>
    </contour>
  </outline>
</glyph>
<glyph name="Y" format="2">
  <advance width="1294"/>
  <unicode hex="0059"/>
  <anchor x="647" y="1460" name="U"/>
  <outline>
    <component base="_latserifSW" xOffset="375"/>
    <component base="_latstemSW" xOffset="375"/>
    <component base="_latserifNW" xOffset="-24" yOffset="408"/>
    <component base="_latserifNE" xOffset="138" yOffset="408"/>
    <contour>
      <point x="591" y="532" type="line"/>
      <point x="703" y="532" type="line"/>
      <point x="1189" y="1446" type="line"/>
      <point x="1049" y="1446" type="line"/>
      <point x="647" y="690" type="line"/>
      <point x="244" y="1446" type="line"/>
      <point x="104" y="1446" type="line"/>
    </contour>
    <contour>
      <point x="583" y="464" type="line"/>
      <point x="711" y="464" type="line"/>
      <point x="711" y="640" type="line"/>
      <point x="583" y="640" type="line"/>
    </contour>
  </outline>
</glyph>
<glyph name="bracketleft" format="2">
  <advance width="626"/>
  <unicode hex="005B"/>
  <outline>
    <component base="_latstemdescW" xOffset="-80"/>
    <component base="_latstemSW" xOffset="-80"/>
    <component base="_latstemNW" xOffset="-80"/>
    <component base="_latstemascW" xOffset="-80"/>
    <contour>
      <point x="192" y="1450" type="line"/>
      <point x="562" y="1450" type="line"/>
      <point x="562" y="1574" type="line"/>
      <point x="192" y="1574" type="line"/>
    </contour>
    <contour>
      <point x="192" y="-512" type="line"/>
      <point x="562" y="-512" type="line"/>
      <point x="562" y="-388" type="line"/>
      <point x="192" y="-388" type="line"/>
    </contour>
  </outline>
</glyph>
<glyph name="bracketright" format="2">
  <advance width="626"/>
  <unicode hex="005D"/>
  <outline>
    <component base="_latstemdescW" xOffset="162"/>
    <component base="_latstemSW" xOffset="162"/>
    <component base="_latstemNW" xOffset="162"/>
    <component base="_latstemascW" xOffset="162"/>
    <contour>
      <point x="64" y="1450" type="line"/>
      <point x="434" y="1450" type="line"/>
      <point x="434" y="1574" type="line"/>
      <point x="64" y="1574" type="line"/>
    </contour>
    <contour>
      <point x="64" y="-512" type="line"/>
      <point x="434" y="-512" type="line"/>
      <point x="434" y="-388" type="line"/>
      <point x="64" y="-388" type="line"/>
    </contour>
  </outline>
</glyph>
<glyph name="asciicircum" format="2">
  <advance width="1180"/>
  <unicode hex="005E"/>
  <outline>
    <contour>
      <point x="155" y="339" type="line"/>
      <point x="290" y="339" type="line"/>
      <point x="608" y="1080" type="line"/>
      <point x="572" y="1080" type="line"/>
      <point x="890" y="339" type="line"/>
      <point x="1025" y="339" type="line"/>
      <point x="590" y="1344" type="line"/>
    </contour>
  </outline>
</glyph>
<glyph name="e" format="2">
  <advance width="996"/>
  <unicode hex="0065"/>
  <anchor x="498" y="1100" name="U"/>
  <outline>
    <component base="_latcirSW"/>
    <component base="_latcurveSE"/>
    <component base="_latcirNW"/>
    <contour>
      <point x="760" y="522" type="line"/>
      <point x="888" y="522" type="line"/>
      <point x="888" y="604" type="line" smooth="yes"/>
      <point x="888" y="927"/>
      <point x="773" y="1050"/>
      <point x="524" y="1050" type="curve" smooth="yes"/>
      <point x="508" y="1050" type="line"/>
      <point x="508" y="926" type="line"/>
      <point x="523" y="926" type="line" smooth="yes"/>
      <point x="707" y="926"/>
      <point x="760" y="823"/>
      <point x="760" y="593" type="curve" smooth="yes"/>
    </contour>
    <contour>
      <point x="172" y="493" type="line"/>
      <point x="888" y="493" type="line"/>
      <point x="888" y="555" type="line"/>
      <point x="823" y="617" type="line"/>
      <point x="172" y="617" type="line"/>
    </contour>
  </outline>
</glyph>
<glyph name="j" format="2">
  <advance width="508"/>
  <unicode hex="006A"/>
  <outline>
    <component base="_latstemSW" xOffset="24"/>
    <component base="_latstemNW" xOffset="24"/>
    <component base="_latdot" xOffset="-36"/>
    <contour>
      <point x="-112" y="-525" type="line"/>
      <point x="-3" y="-525" type="line" smooth="yes"/>
      <point x="280" y="-525"/>
      <point x="360" y="-314"/>
      <point x="360" y="-70" type="curve" smooth="yes"/>
      <point x="360" y="62" type="line"/>
      <point x="232" y="62" type="line"/>
      <point x="232" y="-60" type="line" smooth="yes"/>
      <point x="232" y="-245"/>
      <point x="198" y="-401"/>
      <point x="-23" y="-401" type="curve" smooth="yes"/>
      <point x="-112" y="-401" type="line"/>
    </contour>
    <contour>
      <point x="56" y="914" type="line"/>
      <point x="296" y="914" type="line"/>
      <point x="296" y="1038" type="line"/>
      <point x="56" y="1038" type="line"/>
    </contour>
  </outline>
</glyph>
<glyph name="k" format="2">
  <advance width="1043"/>
  <unicode hex="006B"/>
  <outline>
    <component base="_latserifSW"/>
    <component base="_latstemSW"/>
    <component base="_latstemNW"/>
    <component base="_latstemascW"/>
    <component base="_lathalfserifascW"/>
    <contour>
      <point x="834" y="0" type="line"/>
      <point x="904" y="0" type="line"/>
      <point x="904" y="124" type="line"/>
      <point x="578" y="577" type="line"/>
      <point x="464" y="577" type="line"/>
      <point x="464" y="522" type="line"/>
    </contour>
    <contour>
      <point x="275" y="505" type="line"/>
      <point x="549" y="505" type="line"/>
      <point x="549" y="629" type="line"/>
      <point x="275" y="629" type="line"/>
    </contour>
    <contour>
      <point x="860" y="0" type="line"/>
      <point x="1013" y="0" type="line"/>
      <point x="1013" y="124" type="line"/>
      <point x="860" y="124" type="line"/>
    </contour>
    <contour>
      <point x="427" y="534" type="line"/>
      <point x="541" y="534" type="line"/>
      <point x="929" y="966" type="line"/>
      <point x="929" y="1038" type="line"/>
      <point x="831" y="1038" type="line"/>
      <point x="427" y="589" type="line"/>
    </contour>
    <contour>
      <point x="603" y="914" type="line"/>
      <point x="983" y="914" type="line"/>
      <point x="983" y="1038" type="line"/>
      <point x="603" y="1038" type="line"/>
    </contour>
  </outline>
</glyph>
<glyph name="m" format="2">
  <advance width="1640"/>
  <unicode hex="006D"/>
  <outline>
    <component base="_latserifSW"/>
    <component base="_latserifSE" xOffset="-80"/>
    <component base="_lathalfserifNW"/>
    <component base="_latstemSW"/>
    <component base="_latstemNW"/>
    <component base="_latstemSE" xOffset="-80"/>
    <component base="_latserifSE" xOffset="476"/>
    <component base="_latstemSE" xOffset="476"/>
    <contour>
      <point x="764" y="512" type="line"/>
      <point x="892" y="512" type="line"/>
      <point x="892" y="654" type="line" smooth="yes"/>
      <point x="892" y="917"/>
      <point x="855" y="1050"/>
      <point x="630" y="1050" type="curve" smooth="yes"/>
      <point x="449" y="1050"/>
      <point x="300" y="829"/>
      <point x="254" y="699" type="curve"/>
      <point x="336" y="700" type="line"/>
      <point x="373" y="758"/>
      <point x="497" y="926"/>
      <point x="630" y="926" type="curve" smooth="yes"/>
      <point x="755" y="926"/>
      <point x="764" y="837"/>
      <point x="764" y="632" type="curve" smooth="yes"/>
    </contour>
    <contour>
      <point x="1320" y="512" type="line"/>
      <point x="1448" y="512" type="line"/>
      <point x="1448" y="654" type="line" smooth="yes"/>
      <point x="1448" y="917"/>
      <point x="1411" y="1050"/>
      <point x="1186" y="1050" type="curve" smooth="yes"/>
      <point x="1005" y="1050"/>
      <point x="849" y="829"/>
      <point x="803" y="699" type="curve"/>
      <point x="885" y="700" type="line"/>
      <point x="922" y="758"/>
      <point x="1053" y="926"/>
      <point x="1186" y="926" type="curve" smooth="yes"/>
      <point x="1311" y="926"/>
      <point x="1320" y="837"/>
      <point x="1320" y="632" type="curve" smooth="yes"/>
    </contour>
  </outline>
</glyph>
<glyph name="s" format="2">
  <advance width="972"/>
  <unicode hex="0073"/>
  <anchor x="486" y="1100" name="U"/>
  <outline>
    <component base="_latcurveNE" xOffset="-34"/>
    <contour>
      <point x="484" y="-12" type="line"/>
      <point x="511" y="-12" type="line" smooth="yes"/>
      <point x="760" y="-12"/>
      <point x="864" y="167"/>
      <point x="864" y="292" type="curve" smooth="yes"/>
      <point x="864" y="305" type="line" smooth="yes"/>
      <point x="864" y="450"/>
      <point x="779" y="576"/>
      <point x="492" y="597" type="curve" smooth="yes"/>
      <point x="270" y="613"/>
      <point x="246" y="688"/>
      <point x="246" y="762" type="curve" smooth="yes"/>
      <point x="246" y="815"/>
      <point x="290" y="926"/>
      <point x="472" y="926" type="curve" smooth="yes"/>
      <point x="488" y="926" type="line"/>
      <point x="488" y="1050" type="line"/>
      <point x="461" y="1050" type="line" smooth="yes"/>
      <point x="222" y="1050"/>
      <point x="118" y="884"/>
      <point x="118" y="768" type="curve" smooth="yes"/>
      <point x="118" y="751" type="line" smooth="yes"/>
      <point x="118" y="615"/>
      <point x="198" y="492"/>
      <point x="481" y="473" type="curve" smooth="yes"/>
      <point x="698" y="458"/>
      <point x="734" y="377"/>
      <point x="736" y="293" type="curve" smooth="yes"/>
      <point x="738" y="229"/>
      <point x="688" y="112"/>
      <point x="500" y="112" type="curve" smooth="yes"/>
      <point x="484" y="112" type="line"/>
    </contour>
    <contour>
      <point x="461" y="-12" type="curve" smooth="yes"/>
      <point x="488" y="-12" type="line"/>
      <point x="488" y="112" type="line"/>
      <point x="472" y="112" type="line" smooth="yes"/>
      <point x="280" y="112"/>
      <point x="241" y="223"/>
      <point x="241" y="286" type="curve"/>
      <point x="241" y="293" type="line"/>
      <point x="108" y="293" type="line"/>
      <point x="108" y="286" type="line"/>
      <point x="108" y="160"/>
      <point x="208" y="-12"/>
    </contour>
  </outline>
</glyph>
<glyph name="x" format="2">
  <advance width="1168"/>
  <unicode hex="0078"/>
  <outline>
    <contour>
      <point x="881" y="62" type="line"/>
      <point x="1033" y="62" type="line"/>
      <point x="327" y="976" type="line"/>
      <point x="175" y="976" type="line"/>
    </contour>
    <contour>
      <point x="48" y="0" type="line"/>
      <point x="488" y="0" type="line"/>
      <point x="488" y="124" type="line"/>
      <point x="48" y="124" type="line"/>
    </contour>
    <contour>
      <point x="137" y="62" type="line"/>
      <point x="288" y="62" type="line"/>
      <point x="636" y="525" type="line"/>
      <point x="519" y="568" type="line"/>
    </contour>
    <contour>
      <point x="680" y="0" type="line"/>
      <point x="1120" y="0" type="line"/>
      <point x="1120" y="124" type="line"/>
      <point x="680" y="124" type="line"/>
    </contour>
    <contour>
      <point x="58" y="914" type="line"/>
      <point x="498" y="914" type="line"/>
      <point x="498" y="1038" type="line"/>
      <point x="58" y="1038" type="line"/>
    </contour>
    <contour>
      <point x="654" y="528" type="line"/>
      <point x="994" y="976" type="line"/>
      <point x="843" y="976" type="line"/>
      <point x="535" y="569" type="line"/>
    </contour>
    <contour>
      <point x="670" y="914" type="line"/>
      <point x="1110" y="914" type="line"/>
      <point x="1110" y="1038" type="line"/>
      <point x="670" y="1038" type="line"/>
    </contour>
  </outline>
</glyph>
<glyph name="braceleft" format="2">
  <advance width="610"/>
  <unicode hex="007B"/>
  <outline>
    <contour>
      <point x="85" y="469" type="line"/>
      <point x="163" y="469" type="line" smooth="yes"/>
      <point x="196" y="469"/>
      <point x="418" y="551"/>
      <point x="418" y="801" type="curve" smooth="yes"/>
      <point x="418" y="1022"/>
      <point x="298" y="1139"/>
      <point x="298" y="1296" type="curve" smooth="yes"/>
      <point x="298" y="1416"/>
      <point x="360" y="1450"/>
      <point x="503" y="1450" type="curve" smooth="yes"/>
      <point x="517" y="1450"/>
      <point x="530" y="1450"/>
      <point x="544" y="1450" type="curve"/>
      <point x="546" y="1574" type="line"/>
      <point x="475" y="1574" type="line" smooth="yes"/>
      <point x="285" y="1574"/>
      <point x="170" y="1471"/>
      <point x="170" y="1306" type="curve" smooth="yes"/>
      <point x="170" y="1103"/>
      <point x="290" y="988"/>
      <point x="290" y="811" type="curve" smooth="yes"/>
      <point x="290" y="654"/>
      <point x="199" y="593"/>
      <point x="110" y="593" type="curve" smooth="yes"/>
      <point x="75" y="593" type="line"/>
    </contour>
    <contour>
      <point x="475" y="-512" type="curve" smooth="yes"/>
      <point x="546" y="-512" type="line"/>
      <point x="544" y="-388" type="line"/>
      <point x="530" y="-388"/>
      <point x="517" y="-388"/>
      <point x="503" y="-388" type="curve" smooth="yes"/>
      <point x="360" y="-388"/>
      <point x="298" y="-354"/>
      <point x="298" y="-234" type="curve" smooth="yes"/>
      <point x="298" y="-77"/>
      <point x="418" y="40"/>
      <point x="418" y="261" type="curve" smooth="yes"/>
      <point x="418" y="511"/>
      <point x="196" y="593"/>
      <point x="163" y="593" type="curve" smooth="yes"/>
      <point x="85" y="593" type="line"/>
      <point x="75" y="469" type="line"/>
      <point x="110" y="469" type="line" smooth="yes"/>
      <point x="199" y="469"/>
      <point x="290" y="408"/>
      <point x="290" y="251" type="curve" smooth="yes"/>
      <point x="290" y="74"/>
      <point x="170" y="-41"/>
      <point x="170" y="-244" type="curve" smooth="yes"/>
      <point x="170" y="-409"/>
      <point x="285" y="-512"/>
    </contour>
    <contour>
      <point x="64" y="469" type="line"/>
      <point x="98" y="469" type="line"/>
      <point x="98" y="593" type="line"/>
      <point x="64" y="593" type="line"/>
    </contour>
  </outline>
</glyph>
<glyph name="asciitilde" format="2">
  <advance width="1020"/>
  <unicode hex="007E"/>
  <outline>
    <contour>
      <point x="108" y="625" type="curve"/>
      <point x="228" y="625" type="line"/>
      <point x="228" y="637"/>
      <point x="228" y="706"/>
      <point x="228" y="716" type="curve" smooth="yes"/>
      <point x="228" y="851"/>
      <point x="254" y="926"/>
      <point x="328" y="926" type="curve" smooth="yes"/>
      <point x="389" y="926"/>
      <point x="430" y="853"/>
      <point x="471" y="777" type="curve" smooth="yes"/>
      <point x="532" y="664"/>
      <point x="595" y="611"/>
      <point x="689" y="611" type="curve" smooth="yes"/>
      <point x="816" y="611"/>
      <point x="912" y="699"/>
      <point x="912" y="931" type="curve" smooth="yes"/>
      <point x="912" y="949"/>
      <point x="912" y="1017"/>
      <point x="912" y="1036" type="curve"/>
      <point x="792" y="1036" type="line"/>
      <point x="792" y="1025"/>
      <point x="792" y="958"/>
      <point x="792" y="945" type="curve" smooth="yes"/>
      <point x="792" y="811"/>
      <point x="766" y="735"/>
      <point x="692" y="735" type="curve" smooth="yes"/>
      <point x="631" y="735"/>
      <point x="588" y="813"/>
      <point x="548" y="887" type="curve" smooth="yes"/>
      <point x="493" y="988"/>
      <point x="424" y="1050"/>
      <point x="331" y="1050" type="curve" smooth="yes"/>
      <point x="204" y="1050"/>
      <point x="108" y="962"/>
      <point x="108" y="730" type="curve" smooth="yes"/>
      <point x="108" y="706"/>
      <point x="108" y="649"/>
    </contour>
  </outline>
</glyph>
<glyph name="currency" format="2">
  <advance width="1106"/>
  <unicode hex="00A4"/>
  <outline>
    <contour>
      <point x="322" y="830" type="curve" smooth="yes"/>
      <point x="450" y="702"/>
      <point x="657" y="703"/>
      <point x="785" y="831" type="curve" smooth="yes"/>
      <point x="912" y="958"/>
      <point x="912" y="1165"/>
      <point x="785" y="1293" type="curve" smooth="yes"/>
      <point x="657" y="1420"/>
      <point x="450" y="1420"/>
      <point x="323" y="1293" type="curve" smooth="yes"/>
      <point x="195" y="1165"/>
      <point x="195" y="957"/>
    </contour>
    <contour>
      <point x="408" y="916" type="curve" smooth="yes"/>
      <point x="328" y="997"/>
      <point x="328" y="1126"/>
      <point x="409" y="1207" type="curve" smooth="yes"/>
      <point x="489" y="1287"/>
      <point x="618" y="1287"/>
      <point x="699" y="1207" type="curve" smooth="yes"/>
      <point x="780" y="1126"/>
      <point x="779" y="997"/>
      <point x="699" y="917" type="curve" smooth="yes"/>
      <point x="617" y="836"/>
      <point x="489" y="835"/>
    </contour>
    <contour>
      <point x="156" y="1371" type="line"/>
      <point x="297" y="1229" type="line"/>
      <point x="385" y="1317" type="line"/>
      <point x="243" y="1458" type="line"/>
    </contour>
    <contour>
      <point x="721" y="1317" type="line"/>
      <point x="809" y="1229" type="line"/>
      <point x="950" y="1371" type="line"/>
      <point x="863" y="1458" type="line"/>
    </contour>
    <contour>
      <point x="721" y="805" type="line"/>
      <point x="863" y="664" type="line"/>
      <point x="950" y="751" type="line"/>
      <point x="809" y="893" type="line"/>
    </contour>
    <contour>
      <point x="156" y="751" type="line"/>
      <point x="243" y="664" type="line"/>
      <point x="385" y="805" type="line"/>
      <point x="297" y="893" type="line"/>
    </contour>
  </outline>
</glyph>
<glyph name="ordfeminine" format="2">
  <advance width="590"/>
  <unicode hex="00AA"/>
  <outline>
    <contour>
      <point x="372" y="1189" type="line"/>
      <point x="456" y="1189" type="line"/>
      <point x="456" y="1295" type="line" smooth="yes"/>
      <point x="456" y="1387"/>
      <point x="396" y="1458"/>
      <point x="275" y="1458" type="curve" smooth="yes"/>
      <point x="142" y="1458"/>
      <point x="77" y="1387"/>
      <point x="77" y="1314" type="curve" smooth="yes"/>
      <point x="77" y="1311" type="line"/>
      <point x="162" y="1311" type="line"/>
      <point x="162" y="1314" type="line" smooth="yes"/>
      <point x="162" y="1341"/>
      <point x="193" y="1376"/>
      <point x="275" y="1376" type="curve" smooth="yes"/>
      <point x="351" y="1376"/>
      <point x="372" y="1337"/>
      <point x="372" y="1269" type="curve" smooth="yes"/>
    </contour>
    <contour>
      <point x="64" y="754" type="line"/>
      <point x="526" y="754" type="line"/>
      <point x="526" y="838" type="line"/>
      <point x="64" y="838" type="line"/>
    </contour>
    <contour>
      <point x="216" y="927" type="curve"/>
      <point x="312" y="927"/>
      <point x="410" y="1029"/>
      <point x="433" y="1094" type="curve"/>
      <point x="372" y="1093" type="line"/>
      <point x="354" y="1064"/>
      <point x="292" y="1009"/>
      <point x="229" y="1009" type="curve" smooth="yes"/>
      <point x="180" y="1009"/>
      <point x="148" y="1031"/>
      <point x="148" y="1077" type="curve" smooth="yes"/>
      <point x="148" y="1081" type="line"/>
      <point x="64" y="1081" type="line"/>
      <point x="64" y="1077" type="line" smooth="yes"/>
      <point x="64" y="1004"/>
      <point x="116" y="927"/>
    </contour>
    <contour>
      <point x="64" y="1079" type="line"/>
      <point x="148" y="1079" type="line"/>
      <point x="148" y="1083" type="line"/>
      <point x="148" y="1114"/>
      <point x="170" y="1159"/>
      <point x="251" y="1159" type="curve" smooth="yes"/>
      <point x="259" y="1159" type="line"/>
      <point x="259" y="1242" type="line"/>
      <point x="246" y="1242" type="line" smooth="yes"/>
      <point x="114" y="1242"/>
      <point x="64" y="1146"/>
      <point x="64" y="1083" type="curve"/>
    </contour>
    <contour>
      <point x="414" y="933" type="line"/>
      <point x="526" y="933" type="line"/>
      <point x="526" y="1015" type="line"/>
      <point x="414" y="1015" type="line"/>
    </contour>
    <contour>
      <point x="372" y="933" type="line"/>
      <point x="456" y="933" type="line"/>
      <point x="456" y="1202" type="line"/>
      <point x="372" y="1202" type="line"/>
    </contour>
    <contour>
      <point x="253" y="1159" type="line"/>
      <point x="430" y="1159" type="line"/>
      <point x="430" y="1242" type="line"/>
      <point x="253" y="1242" type="line"/>
    </contour>
  </outline>
</glyph>
<glyph name="registered" format="2">
  <advance width="1725"/>
  <unicode hex="00AE"/>
  <outline>
    <contour>
      <point x="863" y="-12" type="curve" smooth="yes"/>
      <point x="1270" y="-12"/>
      <point x="1597" y="314"/>
      <point x="1597" y="722" type="curve" smooth="yes"/>
      <point x="1597" y="1129"/>
      <point x="1270" y="1458"/>
      <point x="863" y="1458" type="curve" smooth="yes"/>
      <point x="455" y="1458"/>
      <point x="128" y="1129"/>
      <point x="128" y="722" type="curve" smooth="yes"/>
      <point x="128" y="314"/>
      <point x="455" y="-12"/>
    </contour>
    <contour>
      <point x="541" y="269" type="line"/>
      <point x="840" y="269" type="line"/>
      <point x="840" y="373" type="line"/>
      <point x="541" y="373" type="line"/>
    </contour>
    <contour>
      <point x="637" y="269" type="line"/>
      <point x="744" y="269" type="line"/>
      <point x="744" y="612" type="line"/>
      <point x="637" y="612" type="line"/>
    </contour>
    <contour>
      <point x="637" y="596" type="line"/>
      <point x="744" y="596" type="line"/>
      <point x="744" y="912" type="line"/>
      <point x="637" y="912" type="line"/>
    </contour>
    <contour>
      <point x="1093" y="269" type="line"/>
      <point x="1225" y="269" type="line"/>
      <point x="1225" y="373" type="line"/>
      <point x="1093" y="373" type="line"/>
    </contour>
    <contour>
      <point x="1078" y="269" type="line"/>
      <point x="1146" y="269" type="line"/>
      <point x="1146" y="373" type="line"/>
      <point x="953" y="736" type="line"/>
      <point x="856" y="736" type="line"/>
      <point x="856" y="703" type="line"/>
    </contour>
    <contour>
      <point x="863" y="91" type="curve" smooth="yes"/>
      <point x="512" y="91"/>
      <point x="231" y="371"/>
      <point x="231" y="722" type="curve" smooth="yes"/>
      <point x="231" y="1072"/>
      <point x="512" y="1355"/>
      <point x="863" y="1355" type="curve" smooth="yes"/>
      <point x="1213" y="1355"/>
      <point x="1494" y="1072"/>
      <point x="1494" y="722" type="curve" smooth="yes"/>
      <point x="1494" y="371"/>
      <point x="1213" y="91"/>
    </contour>
    <contour>
      <point x="637" y="804" type="line"/>
      <point x="744" y="804" type="line"/>
      <point x="744" y="1176" type="line"/>
      <point x="637" y="1176" type="line"/>
    </contour>
    <contour>
      <point x="695" y="663" type="line"/>
      <point x="858" y="663" type="line" smooth="yes"/>
      <point x="1066" y="663"/>
      <point x="1158" y="784"/>
      <point x="1158" y="913" type="curve" smooth="yes"/>
      <point x="1158" y="932" type="line"/>
      <point x="1051" y="932" type="line"/>
      <point x="1051" y="919" type="line" smooth="yes"/>
      <point x="1051" y="807"/>
      <point x="978" y="767"/>
      <point x="855" y="767" type="curve" smooth="yes"/>
      <point x="695" y="767" type="line"/>
    </contour>
    <contour>
      <point x="541" y="1072" type="line"/>
      <point x="695" y="1072" type="line"/>
      <point x="695" y="1176" type="line"/>
      <point x="541" y="1176" type="line"/>
    </contour>
    <contour>
      <point x="1051" y="926" type="line"/>
      <point x="1158" y="926" type="line"/>
      <point x="1158" y="945" type="line" smooth="yes"/>
      <point x="1158" y="1074"/>
      <point x="1066" y="1176"/>
      <point x="858" y="1176" type="curve" smooth="yes"/>
      <point x="695" y="1176" type="line"/>
      <point x="695" y="1072" type="line"/>
      <point x="855" y="1072" type="line" smooth="yes"/>
      <point x="984" y="1072"/>
      <point x="1051" y="1039"/>
      <point x="1051" y="939" type="curve" smooth="yes"/>
    </contour>
  </outline>
</glyph>
<glyph name="degree" format="2">
  <advance width="784"/>
  <unicode hex="00B0"/>
  <outline>
    <contour>
      <point x="96" y="1279" type="curve" smooth="yes"/>
      <point x="96" y="1116"/>
      <point x="229" y="984"/>
      <point x="392" y="984" type="curve" smooth="yes"/>
      <point x="554" y="984"/>
      <point x="687" y="1117"/>
      <point x="688" y="1279" type="curve" smooth="yes"/>
      <point x="687" y="1441"/>
      <point x="554" y="1574"/>
      <point x="392" y="1574" type="curve" smooth="yes"/>
      <point x="229" y="1574"/>
      <point x="96" y="1441"/>
    </contour>
    <contour>
      <point x="206" y="1279" type="curve" smooth="yes"/>
      <point x="207" y="1382"/>
      <point x="289" y="1464"/>
      <point x="392" y="1464" type="curve" smooth="yes"/>
      <point x="495" y="1464"/>
      <point x="578" y="1382"/>
      <point x="578" y="1279" type="curve" smooth="yes"/>
      <point x="578" y="1175"/>
      <point x="495" y="1094"/>
      <point x="392" y="1094" type="curve" smooth="yes"/>
      <point x="288" y="1095"/>
      <point x="206" y="1175"/>
    </contour>
  </outline>
</glyph>
<glyph name="plusminus" format="2">
  <advance width="1180"/>
  <unicode hex="00B1"/>
  <outline>
    <contour>
      <point x="160" y="856" type="line"/>
      <point x="1020" y="856" type="line"/>
      <point x="1020" y="980" type="line"/>
      <point x="160" y="980" type="line"/>
    </contour>
    <contour>
      <point x="160" y="313" type="line"/>
      <point x="1020" y="313" type="line"/>
      <point x="1020" y="437" type="line"/>
      <point x="160" y="437" type="line"/>
    </contour>
    <contour>
      <point x="528" y="559" type="line"/>
      <point x="652" y="559" type="line"/>
      <point x="652" y="1279" type="line"/>
      <point x="528" y="1279" type="line"/>
    </contour>
  </outline>
</glyph>
<glyph name="twosuperior" format="2">
  <advance width="600"/>
  <unicode hex="00B2"/>
  <outline>
    <contour>
      <point x="82" y="729" type="line"/>
      <point x="125" y="729" type="line"/>
      <point x="331" y="961" type="line" smooth="yes"/>
      <point x="465" y="1112"/>
      <point x="499" y="1172"/>
      <point x="499" y="1266" type="curve" smooth="yes"/>
      <point x="499" y="1380"/>
      <point x="428" y="1458"/>
      <point x="301" y="1458" type="curve" smooth="yes"/>
      <point x="208" y="1458"/>
      <point x="127" y="1408"/>
      <point x="82" y="1338" type="curve"/>
      <point x="151" y="1271" type="line"/>
      <point x="184" y="1323"/>
      <point x="226" y="1358"/>
      <point x="291" y="1358" type="curve" smooth="yes"/>
      <point x="358" y="1358"/>
      <point x="395" y="1332"/>
      <point x="395" y="1266" type="curve" smooth="yes"/>
      <point x="395" y="1207"/>
      <point x="374" y="1156"/>
      <point x="238" y="1004" type="curve" smooth="yes"/>
      <point x="82" y="829" type="line"/>
    </contour>
    <contour>
      <point x="82" y="729" type="line"/>
      <point x="519" y="729" type="line"/>
      <point x="519" y="829" type="line"/>
      <point x="82" y="829" type="line"/>
    </contour>
  </outline>
</glyph>
<glyph name="threesuperior" format="2">
  <advance width="600"/>
  <unicode hex="00B3"/>
  <outline>
    <contour>
      <point x="108" y="1379" type="curve"/>
      <point x="166" y="1305" type="line"/>
      <point x="195" y="1337"/>
      <point x="240" y="1358"/>
      <point x="300" y="1358" type="curve" smooth="yes"/>
      <point x="364" y="1358"/>
      <point x="395" y="1327"/>
      <point x="395" y="1276" type="curve" smooth="yes"/>
      <point x="395" y="1240"/>
      <point x="378" y="1167"/>
      <point x="283" y="1167" type="curve"/>
      <point x="331" y="1077" type="line"/>
      <point x="439" y="1097"/>
      <point x="499" y="1186"/>
      <point x="499" y="1276" type="curve" smooth="yes"/>
      <point x="499" y="1374"/>
      <point x="435" y="1458"/>
      <point x="300" y="1458" type="curve" smooth="yes"/>
      <point x="221" y="1458"/>
      <point x="146" y="1417"/>
    </contour>
    <contour>
      <point x="144" y="926" type="curve"/>
      <point x="69" y="879" type="line"/>
      <point x="109" y="779"/>
      <point x="192" y="723"/>
      <point x="300" y="723" type="curve" smooth="yes"/>
      <point x="433" y="723"/>
      <point x="522" y="821"/>
      <point x="522" y="937" type="curve" smooth="yes"/>
      <point x="522" y="1054"/>
      <point x="450" y="1167"/>
      <point x="298" y="1167" type="curve" smooth="yes"/>
      <point x="288" y="1167"/>
      <point x="216" y="1167"/>
      <point x="207" y="1167" type="curve"/>
      <point x="207" y="1067" type="line"/>
      <point x="216" y="1067"/>
      <point x="290" y="1067"/>
      <point x="298" y="1067" type="curve" smooth="yes"/>
      <point x="404" y="1067"/>
      <point x="418" y="987"/>
      <point x="418" y="937" type="curve" smooth="yes"/>
      <point x="418" y="888"/>
      <point x="383" y="823"/>
      <point x="300" y="823" type="curve" smooth="yes"/>
      <point x="218" y="823"/>
      <point x="175" y="858"/>
    </contour>
  </outline>
</glyph>
<glyph name="micro" format="2">
  <advance width="1064"/>
  <unicode hex="00B5"/>
  <outline>
    <component base="_latstemSE" xOffset="-100"/>
    <component base="_lathalfserifSE" xOffset="-100"/>
    <component base="_latstemNE" xOffset="-100"/>
    <component base="_latstemSW" xOffset="-100"/>
    <component base="_latstemNW" xOffset="-100"/>
    <component base="_latstemdescW" xOffset="-100"/>
    <contour>
      <point x="450" y="-12" type="curve" smooth="yes"/>
      <point x="651" y="-12"/>
      <point x="820" y="221"/>
      <point x="866" y="351" type="curve"/>
      <point x="784" y="350" type="line"/>
      <point x="747" y="292"/>
      <point x="603" y="112"/>
      <point x="450" y="112" type="curve" smooth="yes"/>
      <point x="345" y="112"/>
      <point x="236" y="241"/>
      <point x="236" y="366" type="curve" smooth="yes"/>
      <point x="236" y="438" type="line"/>
      <point x="108" y="438" type="line"/>
      <point x="108" y="416" type="line" smooth="yes"/>
      <point x="108" y="213"/>
      <point x="265" y="-12"/>
    </contour>
  </outline>
</glyph>
<glyph name="Eth" format="2">
  <advance width="1224"/>
  <unicode hex="00D0"/>
  <outline>
    <component base="D"/>
    <contour>
      <point x="64" y="680" type="line"/>
      <point x="640" y="680" type="line"/>
      <point x="640" y="804" type="line"/>
      <point x="64" y="804" type="line"/>
    </contour>
  </outline>
</glyph>
<glyph name="multiply" format="2">
  <advance width="1180"/>
  <unicode hex="00D7"/>
  <outline>
    <contour>
      <point x="863" y="289" type="line"/>
      <point x="1022" y="289" type="line"/>
      <point x="317" y="1155" type="line"/>
      <point x="158" y="1155" type="line"/>
    </contour>
    <contour>
      <point x="158" y="289" type="line"/>
      <point x="317" y="289" type="line"/>
      <point x="1022" y="1155" type="line"/>
      <point x="863" y="1155" type="line"/>
    </contour>
  </outline>
</glyph>
<glyph name="Thorn" format="2">
  <advance width="1118"/>
  <unicode hex="00DE"/>
  <outline>
    <component base="_latserifSW" xOffset="16"/>
    <component base="_latstemSW" xOffset="16"/>
    <component base="_latstemNW" xOffset="16"/>
    <component base="_latstemascW" xOffset="16" yOffset="-128"/>
    <component base="_latserifNW" xOffset="16" yOffset="408"/>
    <contour>
      <point x="288" y="340" type="line"/>
      <point x="527" y="340" type="line" smooth="yes"/>
      <point x="850" y="340"/>
      <point x="1010" y="498"/>
      <point x="1010" y="711" type="curve" smooth="yes"/>
      <point x="1010" y="743" type="line"/>
      <point x="882" y="743" type="line"/>
      <point x="882" y="721" type="line" smooth="yes"/>
      <point x="882" y="556"/>
      <point x="764" y="464"/>
      <point x="521" y="464" type="curve" smooth="yes"/>
      <point x="288" y="464" type="line"/>
    </contour>
    <contour>
      <point x="882" y="733" type="line"/>
      <point x="1010" y="733" type="line"/>
      <point x="1010" y="765" type="line" smooth="yes"/>
      <point x="1010" y="978"/>
      <point x="850" y="1106"/>
      <point x="527" y="1106" type="curve" smooth="yes"/>
      <point x="288" y="1106" type="line"/>
      <point x="288" y="982" type="line"/>
      <point x="521" y="982" type="line" smooth="yes"/>
      <point x="764" y="982"/>
      <point x="882" y="919"/>
      <point x="882" y="754" type="curve" smooth="yes"/>
    </contour>
  </outline>
</glyph>
<glyph name="germandbls" format="2">
  <advance width="1118"/>
  <unicode hex="00DF"/>
  <anchor x="583" y="1632" name="U"/>
  <outline>
    <component base="_latstemSW"/>
    <component base="_latstemNW"/>
    <contour>
      <point x="464" y="0" type="line"/>
      <point x="565" y="0" type="line" smooth="yes"/>
      <point x="868" y="0"/>
      <point x="1010" y="199"/>
      <point x="1010" y="476" type="curve" smooth="yes"/>
      <point x="1010" y="493" type="line"/>
      <point x="882" y="493" type="line"/>
      <point x="882" y="476" type="line" smooth="yes"/>
      <point x="882" y="252"/>
      <point x="785" y="124"/>
      <point x="559" y="124" type="curve" smooth="yes"/>
      <point x="464" y="124" type="line"/>
    </contour>
    <contour>
      <point x="48" y="0" type="line"/>
      <point x="271" y="0" type="line"/>
      <point x="271" y="124" type="line"/>
      <point x="48" y="124" type="line"/>
    </contour>
    <contour>
      <point x="882" y="483" type="line"/>
      <point x="1010" y="483" type="line"/>
      <point x="1010" y="499" type="line" smooth="yes"/>
      <point x="1010" y="766"/>
      <point x="810" y="936"/>
      <point x="568" y="936" type="curve" smooth="yes"/>
      <point x="484" y="936" type="line"/>
      <point x="484" y="812" type="line"/>
      <point x="567" y="812" type="line" smooth="yes"/>
      <point x="739" y="812"/>
      <point x="882" y="703"/>
      <point x="882" y="499" type="curve" smooth="yes"/>
    </contour>
    <contour>
      <point x="208" y="973" type="line"/>
      <point x="336" y="973" type="line"/>
      <point x="336" y="1095" type="line" smooth="yes"/>
      <point x="336" y="1290"/>
      <point x="371" y="1450"/>
      <point x="572" y="1450" type="curve" smooth="yes"/>
      <point x="592" y="1450" type="line"/>
      <point x="592" y="1574" type="line"/>
      <point x="551" y="1574" type="line" smooth="yes"/>
      <point x="311" y="1574"/>
      <point x="208" y="1389"/>
      <point x="208" y="1105" type="curve" smooth="yes"/>
    </contour>
    <contour>
      <point x="464" y="812" type="line"/>
      <point x="533" y="812" type="line" smooth="yes"/>
      <point x="736" y="812"/>
      <point x="940" y="950"/>
      <point x="940" y="1197" type="curve" smooth="yes"/>
      <point x="940" y="1214" type="line"/>
      <point x="812" y="1214" type="line"/>
      <point x="812" y="1197" type="line" smooth="yes"/>
      <point x="812" y="1013"/>
      <point x="680" y="936"/>
      <point x="547" y="936" type="curve" smooth="yes"/>
      <point x="464" y="936" type="line"/>
    </contour>
    <contour>
      <point x="812" y="1204" type="line"/>
      <point x="940" y="1204" type="line"/>
      <point x="940" y="1220" type="line" smooth="yes"/>
      <point x="940" y="1387"/>
      <point x="850" y="1574"/>
      <point x="607" y="1574" type="curve" smooth="yes"/>
      <point x="581" y="1574" type="line"/>
      <point x="581" y="1450" type="line"/>
      <point x="601" y="1450" type="line" smooth="yes"/>
      <point x="764" y="1450"/>
      <point x="812" y="1314"/>
      <point x="812" y="1220" type="curve" smooth="yes"/>
    </contour>
  </outline>
</glyph>
<glyph name="eth" format="2">
  <advance width="1000"/>
  <unicode hex="00F0"/>
  <outline>
    <contour>
      <point x="764" y="672" type="line"/>
      <point x="892" y="672" type="line"/>
      <point x="892" y="710" type="line" smooth="yes"/>
      <point x="892" y="1213"/>
      <point x="635" y="1475"/>
      <point x="216" y="1574" type="curve"/>
      <point x="181" y="1459" type="line"/>
      <point x="559" y="1371"/>
      <point x="764" y="1144"/>
      <point x="764" y="699" type="curve" smooth="yes"/>
    </contour>
    <contour>
      <point x="466" y="-12" type="curve" smooth="yes"/>
      <point x="492" y="-12" type="line"/>
      <point x="492" y="112" type="line"/>
      <point x="476" y="112" type="line" smooth="yes"/>
      <point x="288" y="112"/>
      <point x="236" y="241"/>
      <point x="236" y="506" type="curve" smooth="yes"/>
      <point x="236" y="528" type="line"/>
      <point x="108" y="528" type="line"/>
      <point x="108" y="496" type="line" smooth="yes"/>
      <point x="108" y="172"/>
      <point x="203" y="-12"/>
    </contour>
    <contour>
      <point x="488" y="-12" type="line"/>
      <point x="504" y="-12" type="line" smooth="yes"/>
      <point x="757" y="-12"/>
      <point x="892" y="152"/>
      <point x="892" y="616" type="curve" smooth="yes"/>
      <point x="892" y="688" type="line"/>
      <point x="764" y="688" type="line"/>
      <point x="764" y="626" type="line" smooth="yes"/>
      <point x="764" y="241"/>
      <point x="684" y="112"/>
      <point x="503" y="112" type="curve" smooth="yes"/>
      <point x="488" y="112" type="line"/>
    </contour>
    <contour>
      <point x="108" y="512" type="line"/>
      <point x="236" y="512" type="line"/>
      <point x="236" y="602" type="line" smooth="yes"/>
      <point x="236" y="817"/>
      <point x="315" y="926"/>
      <point x="460" y="926" type="curve" smooth="yes"/>
      <point x="613" y="926"/>
      <point x="727" y="788"/>
      <point x="764" y="730" type="curve"/>
      <point x="846" y="729" type="line"/>
      <point x="800" y="859"/>
      <point x="661" y="1050"/>
      <point x="460" y="1050" type="curve" smooth="yes"/>
      <point x="225" y="1050"/>
      <point x="108" y="877"/>
      <point x="108" y="614" type="curve" smooth="yes"/>
    </contour>
    <contour>
      <point x="278" y="1138" type="line"/>
      <point x="851" y="1484" type="line"/>
      <point x="774" y="1574" type="line"/>
      <point x="202" y="1228" type="line"/>
    </contour>
  </outline>
</glyph>
<glyph name="divide" format="2">
  <advance width="1180"/>
  <unicode hex="00F7"/>
  <outline>
    <contour>
      <point x="160" y="660" type="line"/>
      <point x="1020" y="660" type="line"/>
      <point x="1020" y="784" type="line"/>
      <point x="160" y="784" type="line"/>
    </contour>
    <contour>
      <point x="500" y="312" type="line"/>
      <point x="680" y="312" type="line"/>
      <point x="680" y="492" type="line"/>
      <point x="500" y="492" type="line"/>
    </contour>
    <contour>
      <point x="500" y="952" type="line"/>
      <point x="680" y="952" type="line"/>
      <point x="680" y="1132" type="line"/>
      <point x="500" y="1132" type="line"/>
    </contour>
  </outline>
</glyph>
<glyph name="OE" format="2">
  <advance width="1844"/>
  <unicode hex="0152"/>
  <anchor x="981" y="1460" name="U"/>
  <outline>
    <component base="E" xOffset="692"/>
    <contour>
      <point x="756" y="1322" type="curve"/>
      <point x="756" y="1446" type="line"/>
      <point x="716" y="1452"/>
      <point x="670" y="1458"/>
      <point x="635" y="1458" type="curve" smooth="yes"/>
      <point x="614" y="1458" type="line"/>
      <point x="614" y="1334" type="line"/>
      <point x="629" y="1334" type="line" smooth="yes"/>
      <point x="670" y="1334"/>
      <point x="717" y="1330"/>
    </contour>
    <contour>
      <point x="124" y="724" type="line"/>
      <point x="252" y="724" type="line"/>
      <point x="252" y="745" type="line" smooth="yes"/>
      <point x="252" y="1130"/>
      <point x="339" y="1334"/>
      <point x="602" y="1334" type="curve" smooth="yes"/>
      <point x="618" y="1334" type="line"/>
      <point x="618" y="1458" type="line"/>
      <point x="597" y="1458" type="line" smooth="yes"/>
      <point x="279" y="1458"/>
      <point x="124" y="1229"/>
      <point x="124" y="756" type="curve" smooth="yes"/>
    </contour>
    <contour>
      <point x="756" y="0" type="curve"/>
      <point x="756" y="124" type="line"/>
      <point x="717" y="116"/>
      <point x="680" y="112"/>
      <point x="629" y="112" type="curve" smooth="yes"/>
      <point x="614" y="112" type="line"/>
      <point x="614" y="-12" type="line"/>
      <point x="635" y="-12" type="line" smooth="yes"/>
      <point x="681" y="-12"/>
      <point x="716" y="-8"/>
    </contour>
    <contour>
      <point x="597" y="-12" type="curve" smooth="yes"/>
      <point x="618" y="-12" type="line"/>
      <point x="618" y="112" type="line"/>
      <point x="602" y="112" type="line" smooth="yes"/>
      <point x="339" y="112"/>
      <point x="252" y="327"/>
      <point x="252" y="712" type="curve" smooth="yes"/>
      <point x="252" y="734" type="line"/>
      <point x="124" y="734" type="line"/>
      <point x="124" y="702" type="line" smooth="yes"/>
      <point x="124" y="228"/>
      <point x="279" y="-12"/>
    </contour>
  </outline>
</glyph>
<glyph name="breve" format="2">
  <advance width="1020"/>
  <unicode hex="02D8"/>
  <outline>
    <contour>
      <point x="501" y="1190" type="curve" smooth="yes"/>
      <point x="519" y="1190" type="line" smooth="yes"/>
      <point x="712" y="1190"/>
      <point x="855" y="1338"/>
      <point x="855" y="1522" type="curve" smooth="yes"/>
      <point x="855" y="1544" type="line"/>
      <point x="734" y="1544" type="line"/>
      <point x="734" y="1532" type="line" smooth="yes"/>
      <point x="734" y="1407"/>
      <point x="650" y="1314"/>
      <point x="518" y="1314" type="curve" smooth="yes"/>
      <point x="501" y="1314" type="line" smooth="yes"/>
      <point x="370" y="1314"/>
      <point x="286" y="1407"/>
      <point x="286" y="1532" type="curve" smooth="yes"/>
      <point x="286" y="1544" type="line"/>
      <point x="165" y="1544" type="line"/>
      <point x="165" y="1522" type="line" smooth="yes"/>
      <point x="165" y="1338"/>
      <point x="308" y="1190"/>
    </contour>
  </outline>
</glyph>
<glyph name="ogonek" format="2">
  <advance width="1020"/>
  <unicode hex="02DB"/>
  <anchor x="510" y="-50" name="_L"/>
  <outline>
    <contour>
      <point x="569" y="-410" type="curve" smooth="yes"/>
      <point x="675" y="-410" type="line"/>
      <point x="675" y="-310" type="line"/>
      <point x="661" y="-310"/>
      <point x="649" y="-310"/>
      <point x="596" y="-310" type="curve" smooth="yes"/>
      <point x="512" y="-310"/>
      <point x="466" y="-292"/>
      <point x="466" y="-228" type="curve"/>
      <point x="465" y="-172"/>
      <point x="485" y="-112"/>
      <point x="638" y="20" type="curve"/>
      <point x="508" y="20" type="line"/>
      <point x="362" y="-101"/>
      <point x="345" y="-170"/>
      <point x="345" y="-243" type="curve" smooth="yes"/>
      <point x="345" y="-327"/>
      <point x="400" y="-410"/>
    </contour>
  </outline>
</glyph>
<glyph name="circumflexcomb" format="2">
  <unicode hex="0302"/>
  <anchor x="-510" y="1100" name="_U"/>
  <outline>
    <contour>
      <point x="-845" y="1169" type="line"/>
      <point x="-686" y="1169" type="line"/>
      <point x="-510" y="1387" type="line"/>
      <point x="-334" y="1169" type="line"/>
      <point x="-175" y="1169" type="line"/>
      <point x="-510" y="1584" type="line"/>
    </contour>
  </outline>
</glyph>
<glyph name="tildecomb" format="2">
  <unicode hex="0303"/>
  <anchor x="-510" y="1100" name="_U"/>
  <outline>
    <contour>
      <point x="-865" y="1230" type="curve"/>
      <point x="-745" y="1230" type="line"/>
      <point x="-745" y="1238"/>
      <point x="-745" y="1273"/>
      <point x="-745" y="1280" type="curve" smooth="yes"/>
      <point x="-745" y="1375"/>
      <point x="-719" y="1406"/>
      <point x="-675" y="1406" type="curve" smooth="yes"/>
      <point x="-634" y="1406"/>
      <point x="-590" y="1367"/>
      <point x="-536" y="1316" type="curve" smooth="yes"/>
      <point x="-482" y="1265"/>
      <point x="-422" y="1220"/>
      <point x="-348" y="1220" type="curve" smooth="yes"/>
      <point x="-251" y="1220"/>
      <point x="-155" y="1296"/>
      <point x="-155" y="1460" type="curve" smooth="yes"/>
      <point x="-155" y="1473"/>
      <point x="-155" y="1507"/>
      <point x="-155" y="1520" type="curve"/>
      <point x="-275" y="1520" type="line"/>
      <point x="-275" y="1512"/>
      <point x="-275" y="1479"/>
      <point x="-275" y="1470" type="curve" smooth="yes"/>
      <point x="-275" y="1375"/>
      <point x="-301" y="1344"/>
      <point x="-345" y="1344" type="curve" smooth="yes"/>
      <point x="-386" y="1344"/>
      <point x="-433" y="1387"/>
      <point x="-485" y="1436" type="curve" smooth="yes"/>
      <point x="-540" y="1487"/>
      <point x="-599" y="1530"/>
      <point x="-672" y="1530" type="curve" smooth="yes"/>
      <point x="-769" y="1530"/>
      <point x="-865" y="1454"/>
      <point x="-865" y="1290" type="curve" smooth="yes"/>
      <point x="-865" y="1273"/>
      <point x="-865" y="1247"/>
    </contour>
  </outline>
</glyph>
<glyph name="cedillacomb" format="2">
  <unicode hex="0327"/>
  <anchor x="-510" y="-50" name="_L"/>
  <outline>
    <contour>
      <point x="-627" y="-410" type="line"/>
      <point x="-561" y="-410"/>
      <point x="-556" y="-409"/>
      <point x="-538" y="-409" type="curve" smooth="yes"/>
      <point x="-359" y="-409"/>
      <point x="-304" y="-306"/>
      <point x="-304" y="-228" type="curve" smooth="yes"/>
      <point x="-304" y="-150"/>
      <point x="-348" y="-98"/>
      <point x="-460" y="-78" type="curve"/>
      <point x="-460" y="20" type="line"/>
      <point x="-560" y="20" type="line"/>
      <point x="-560" y="-154" type="line"/>
      <point x="-471" y="-160"/>
      <point x="-424" y="-179"/>
      <point x="-424" y="-228" type="curve" smooth="yes"/>
      <point x="-424" y="-276"/>
      <point x="-461" y="-310"/>
      <point x="-554" y="-310" type="curve" smooth="yes"/>
      <point x="-573" y="-310"/>
      <point x="-608" y="-310"/>
      <point x="-627" y="-310" type="curve"/>
    </contour>
  </outline>
</glyph>
<glyph name="figuredash" format="2">
  <advance width="1106"/>
  <unicode hex="2012"/>
  <outline>
    <contour>
      <point x="128" y="663" type="line"/>
      <point x="978" y="663" type="line"/>
      <point x="978" y="767" type="line"/>
      <point x="128" y="767" type="line"/>
    </contour>
  </outline>
</glyph>
<glyph name="emdash" format="2">
  <advance width="1748"/>
  <unicode hex="2014"/>
  <outline>
    <contour>
      <point x="128" y="473" type="line"/>
      <point x="1620" y="473" type="line"/>
      <point x="1620" y="577" type="line"/>
      <point x="128" y="577" type="line"/>
    </contour>
  </outline>
</glyph>
<glyph name="horizontalbar" format="2">
  <advance width="1748"/>
  <unicode hex="2015"/>
  <outline>
    <contour>
      <point x="0" y="473" type="line"/>
      <point x="1748" y="473" type="line"/>
      <point x="1748" y="577" type="line"/>
      <point x="0" y="577" type="line"/>
    </contour>
  </outline>
</glyph>
<glyph name="dagger" format="2">
  <advance width="788"/>
  <unicode hex="2020"/>
  <outline>
    <component base="_klmidW" xOffset="202"/>
    <component base="_latstemNW" xOffset="122"/>
    <component base="_latcrossbar" xOffset="12"/>
    <contour>
      <point x="330" y="988" type="line"/>
      <point x="458" y="988" type="line"/>
      <point x="458" y="1316" type="line"/>
      <point x="330" y="1316" type="line"/>
    </contour>
  </outline>
</glyph>
<glyph name="guilsinglleft" format="2">
  <advance width="737"/>
  <unicode hex="2039"/>
  <outline>
    <contour>
      <point x="673" y="0" type="line"/>
      <point x="498" y="193"/>
      <point x="352" y="359"/>
      <point x="190" y="548" type="curve"/>
      <point x="190" y="502" type="line"/>
      <point x="352" y="691"/>
      <point x="498" y="857"/>
      <point x="673" y="1050" type="curve"/>
      <point x="503" y="1050" type="line"/>
      <point x="366" y="895"/>
      <point x="228" y="735"/>
      <point x="48" y="525" type="curve"/>
      <point x="228" y="315"/>
      <point x="366" y="155"/>
      <point x="503" y="0" type="curve"/>
    </contour>
  </outline>
</glyph>
<glyph name="fraction" format="2">
  <advance width="1152"/>
  <unicode hex="2044"/>
  <outline>
    <contour>
      <point x="32" y="0" type="line"/>
      <point x="172" y="0" type="line"/>
      <point x="1120" y="1446" type="line"/>
      <point x="980" y="1446" type="line"/>
    </contour>
  </outline>
</glyph>
<glyph name="foursuperior" format="2">
  <advance width="600"/>
  <unicode hex="2074"/>
  <outline>
    <contour>
      <point x="54" y="892" type="line"/>
      <point x="102" y="892" type="line"/>
      <point x="375" y="1293" type="line"/>
      <point x="472" y="1293" type="line"/>
      <point x="472" y="1458" type="line"/>
      <point x="371" y="1458" type="line"/>
      <point x="54" y="992" type="line"/>
    </contour>
    <contour>
      <point x="54" y="892" type="line"/>
      <point x="555" y="892" type="line"/>
      <point x="555" y="992" type="line"/>
      <point x="54" y="992" type="line"/>
    </contour>
    <contour>
      <point x="368" y="729" type="line"/>
      <point x="472" y="729" type="line"/>
      <point x="472" y="1412" type="line"/>
      <point x="368" y="1412" type="line"/>
    </contour>
  </outline>
</glyph>
<glyph name="euro" format="2">
  <advance width="1106"/>
  <unicode hex="20AC"/>
  <outline>
    <contour>
      <point x="627" y="-12" type="curve" smooth="yes"/>
      <point x="665" y="-12" type="line" smooth="yes"/>
      <point x="928" y="-12"/>
      <point x="1042" y="202"/>
      <point x="1042" y="376" type="curve" smooth="yes"/>
      <point x="1042" y="388" type="line"/>
      <point x="909" y="388" type="line"/>
      <point x="909" y="376" type="line" smooth="yes"/>
      <point x="909" y="281"/>
      <point x="867" y="112"/>
      <point x="659" y="112" type="curve" smooth="yes"/>
      <point x="632" y="112" type="line" smooth="yes"/>
      <point x="394" y="112"/>
      <point x="332" y="327"/>
      <point x="332" y="712" type="curve" smooth="yes"/>
      <point x="332" y="745" type="line" smooth="yes"/>
      <point x="332" y="1130"/>
      <point x="394" y="1334"/>
      <point x="632" y="1334" type="curve" smooth="yes"/>
      <point x="659" y="1334" type="line" smooth="yes"/>
      <point x="867" y="1334"/>
      <point x="909" y="1176"/>
      <point x="909" y="1081" type="curve" smooth="yes"/>
      <point x="909" y="1070" type="line"/>
      <point x="1042" y="1070" type="line"/>
      <point x="1042" y="1082" type="line" smooth="yes"/>
      <point x="1042" y="1265"/>
      <point x="928" y="1458"/>
      <point x="665" y="1458" type="curve" smooth="yes"/>
      <point x="627" y="1458" type="line" smooth="yes"/>
      <point x="334" y="1458"/>
      <point x="204" y="1229"/>
      <point x="204" y="756" type="curve" smooth="yes"/>
      <point x="204" y="702" type="line" smooth="yes"/>
      <point x="204" y="228"/>
      <point x="334" y="-12"/>
    </contour>
    <contour>
      <point x="120" y="796" type="line"/>
      <point x="770" y="796" type="line"/>
      <point x="770" y="920" type="line"/>
      <point x="120" y="920" type="line"/>
    </contour>
    <contour>
      <point x="64" y="524" type="line"/>
      <point x="714" y="524" type="line"/>
      <point x="714" y="647" type="line"/>
      <point x="64" y="648" type="line"/>
    </contour>
  </outline>
</glyph>
<glyph name="trademark" format="2">
  <advance width="1483"/>
  <unicode hex="2122"/>
  <outline>
    <contour>
      <point x="106" y="1370" type="line"/>
      <point x="586" y="1370" type="line"/>
      <point x="586" y="1452" type="line"/>
      <point x="106" y="1452" type="line"/>
    </contour>
    <contour>
      <point x="544" y="1284" type="line"/>
      <point x="628" y="1284" type="line"/>
      <point x="628" y="1452" type="line"/>
      <point x="544" y="1452" type="line"/>
    </contour>
    <contour>
      <point x="64" y="1284" type="line"/>
      <point x="148" y="1284" type="line"/>
      <point x="148" y="1452" type="line"/>
      <point x="64" y="1452" type="line"/>
    </contour>
    <contour>
      <point x="224" y="729" type="line"/>
      <point x="468" y="729" type="line"/>
      <point x="468" y="811" type="line"/>
      <point x="224" y="811" type="line"/>
    </contour>
    <contour>
      <point x="304" y="729" type="line"/>
      <point x="388" y="729" type="line"/>
      <point x="388" y="998" type="line"/>
      <point x="304" y="998" type="line"/>
    </contour>
    <contour>
      <point x="304" y="985" type="line"/>
      <point x="388" y="985" type="line"/>
      <point x="388" y="1248" type="line"/>
      <point x="304" y="1248" type="line"/>
    </contour>
    <contour>
      <point x="304" y="1158" type="line"/>
      <point x="388" y="1158" type="line"/>
      <point x="388" y="1452" type="line"/>
      <point x="304" y="1452" type="line"/>
    </contour>
    <contour>
      <point x="234" y="1370" type="line"/>
      <point x="458" y="1370" type="line"/>
      <point x="458" y="1452" type="line"/>
      <point x="234" y="1452" type="line"/>
    </contour>
    <contour>
      <point x="1010" y="879" type="line"/>
      <point x="1081" y="879" type="line"/>
      <point x="1294" y="1452" type="line"/>
      <point x="1219" y="1452" type="line"/>
      <point x="1031" y="937" type="line"/>
      <point x="1062" y="937" type="line"/>
      <point x="872" y="1452" type="line"/>
      <point x="797" y="1452" type="line"/>
    </contour>
    <contour>
      <point x="672" y="729" type="line"/>
      <point x="916" y="729" type="line"/>
      <point x="916" y="811" type="line"/>
      <point x="672" y="811" type="line"/>
    </contour>
    <contour>
      <point x="752" y="729" type="line"/>
      <point x="836" y="729" type="line"/>
      <point x="836" y="998" type="line"/>
      <point x="752" y="998" type="line"/>
    </contour>
    <contour>
      <point x="752" y="985" type="line"/>
      <point x="836" y="985" type="line"/>
      <point x="836" y="1248" type="line"/>
      <point x="752" y="1248" type="line"/>
    </contour>
    <contour>
      <point x="1175" y="729" type="line"/>
      <point x="1419" y="729" type="line"/>
      <point x="1419" y="811" type="line"/>
      <point x="1175" y="811" type="line"/>
    </contour>
    <contour>
      <point x="1255" y="729" type="line"/>
      <point x="1339" y="729" type="line"/>
      <point x="1339" y="998" type="line"/>
      <point x="1255" y="998" type="line"/>
    </contour>
    <contour>
      <point x="752" y="1158" type="line"/>
      <point x="836" y="1158" type="line"/>
      <point x="836" y="1452" type="line"/>
      <point x="752" y="1452" type="line"/>
    </contour>
    <contour>
      <point x="672" y="1370" type="line"/>
      <point x="794" y="1370" type="line"/>
      <point x="794" y="1452" type="line"/>
      <point x="672" y="1452" type="line"/>
    </contour>
    <contour>
      <point x="1255" y="985" type="line"/>
      <point x="1339" y="985" type="line"/>
      <point x="1339" y="1248" type="line"/>
      <point x="1255" y="1248" type="line"/>
    </contour>
    <contour>
      <point x="1255" y="1158" type="line"/>
      <point x="1339" y="1158" type="line"/>
      <point x="1339" y="1452" type="line"/>
      <point x="1255" y="1452" type="line"/>
    </contour>
    <contour>
      <point x="1289" y="1370" type="line"/>
      <point x="1411" y="1370" type="line"/>
      <point x="1411" y="1452" type="line"/>
      <point x="1289" y="1452" type="line"/>
    </contour>
  </outline>
</glyph>
<glyph name="summation" format="2">
  <advance width="1152"/>
  <unicode hex="2211"/>
  <outline>
    <component base="_latserifSW" xOffset="16"/>
    <component base="_latserifNW" xOffset="16" yOffset="408"/>
    <contour>
      <point x="288" y="1322" type="line"/>
      <point x="964" y="1322" type="line"/>
      <point x="964" y="1446" type="line"/>
      <point x="288" y="1446" type="line"/>
    </contour>
    <contour>
      <point x="288" y="0" type="line"/>
      <point x="964" y="0" type="line"/>
      <point x="964" y="124" type="line"/>
      <point x="288" y="124" type="line"/>
    </contour>
    <contour>
      <point x="900" y="0" type="line"/>
      <point x="1028" y="0" type="line"/>
      <point x="1028" y="304" type="line"/>
      <point x="900" y="304" type="line"/>
    </contour>
    <contour>
      <point x="612" y="743" type="line"/>
      <point x="212" y="1322" type="line"/>
      <point x="64" y="1322" type="line"/>
      <point x="464" y="743" type="line"/>
      <point x="64" y="124" type="line"/>
      <point x="212" y="124" type="line"/>
    </contour>
    <contour>
      <point x="900" y="1158" type="line"/>
      <point x="1028" y="1158" type="line"/>
      <point x="1028" y="1446" type="line"/>
      <point x="900" y="1446" type="line"/>
    </contour>
  </outline>
</glyph>
<glyph name="radical" format="2">
  <advance width="1320"/>
  <unicode hex="221A"/>
  <outline>
    <contour>
      <point x="799" y="0" type="line"/>
      <point x="1158" y="1698" type="line"/>
      <point x="1031" y="1698" type="line"/>
      <point x="710" y="151" type="line"/>
      <point x="418" y="1038" type="line"/>
      <point x="286" y="1038" type="line"/>
      <point x="635" y="0" type="line"/>
    </contour>
    <contour>
      <point x="160" y="914" type="line"/>
      <point x="384" y="914" type="line"/>
      <point x="384" y="1038" type="line"/>
      <point x="160" y="1038" type="line"/>
    </contour>
    <contour>
      <point x="1076" y="1574" type="line"/>
      <point x="1320" y="1574" type="line"/>
      <point x="1320" y="1698" type="line"/>
      <point x="1076" y="1698" type="line"/>
    </contour>
  </outline>
</glyph>
<glyph name="infinity" format="2">
  <advance width="1695"/>
  <unicode hex="221E"/>
  <outline>
    <contour>
      <point x="409" y="364" type="curve" smooth="yes"/>
      <point x="607" y="364"/>
      <point x="712" y="500"/>
      <point x="848" y="637" type="curve"/>
      <point x="981" y="500"/>
      <point x="1088" y="364"/>
      <point x="1286" y="364" type="curve" smooth="yes"/>
      <point x="1453" y="364"/>
      <point x="1587" y="539"/>
      <point x="1587" y="727" type="curve" smooth="yes"/>
      <point x="1587" y="925"/>
      <point x="1438" y="1085"/>
      <point x="1271" y="1085" type="curve" smooth="yes"/>
      <point x="1103" y="1085"/>
      <point x="961" y="929"/>
      <point x="848" y="808" type="curve"/>
      <point x="732" y="929"/>
      <point x="590" y="1085"/>
      <point x="424" y="1085" type="curve" smooth="yes"/>
      <point x="257" y="1085"/>
      <point x="108" y="925"/>
      <point x="108" y="727" type="curve" smooth="yes"/>
      <point x="108" y="539"/>
      <point x="242" y="364"/>
    </contour>
    <contour>
      <point x="432" y="485" type="curve" smooth="yes"/>
      <point x="327" y="485"/>
      <point x="222" y="581"/>
      <point x="222" y="710" type="curve" smooth="yes"/>
      <point x="222" y="838"/>
      <point x="308" y="952"/>
      <point x="422" y="952" type="curve" smooth="yes"/>
      <point x="552" y="952"/>
      <point x="677" y="814"/>
      <point x="771" y="723" type="curve"/>
      <point x="676" y="614"/>
      <point x="577" y="485"/>
    </contour>
    <contour>
      <point x="1263" y="485" type="curve" smooth="yes"/>
      <point x="1117" y="485"/>
      <point x="1018" y="614"/>
      <point x="922" y="723" type="curve"/>
      <point x="1016" y="814"/>
      <point x="1141" y="952"/>
      <point x="1271" y="952" type="curve" smooth="yes"/>
      <point x="1385" y="952"/>
      <point x="1471" y="838"/>
      <point x="1471" y="710" type="curve" smooth="yes"/>
      <point x="1471" y="581"/>
      <point x="1368" y="485"/>
    </contour>
  </outline>
</glyph>
<glyph name="integral" format="2">
  <advance width="730"/>
  <unicode hex="222B"/>
  <outline>
    <contour>
      <point x="296" y="973" type="line"/>
      <point x="424" y="973" type="line"/>
      <point x="424" y="1095" type="line" smooth="yes"/>
      <point x="424" y="1290"/>
      <point x="429" y="1450"/>
      <point x="650" y="1450" type="curve" smooth="yes"/>
      <point x="730" y="1450" type="line"/>
      <point x="730" y="1574" type="line"/>
      <point x="629" y="1574" type="line" smooth="yes"/>
      <point x="346" y="1574"/>
      <point x="296" y="1359"/>
      <point x="296" y="1105" type="curve" smooth="yes"/>
    </contour>
    <contour>
      <point x="0" y="-512" type="line"/>
      <point x="91" y="-512" type="line" smooth="yes"/>
      <point x="374" y="-512"/>
      <point x="424" y="-297"/>
      <point x="424" y="-42" type="curve" smooth="yes"/>
      <point x="424" y="90" type="line"/>
      <point x="296" y="90" type="line"/>
      <point x="296" y="-32" type="line" smooth="yes"/>
      <point x="296" y="-228"/>
      <point x="291" y="-388"/>
      <point x="70" y="-388" type="curve" smooth="yes"/>
      <point x="0" y="-388" type="line"/>
    </contour>
    <contour>
      <point x="296" y="0" type="line"/>
      <point x="424" y="0" type="line"/>
      <point x="424" y="538" type="line"/>
      <point x="296" y="538" type="line"/>
    </contour>
    <contour>
      <point x="296" y="512" type="line"/>
      <point x="424" y="512" type="line"/>
      <point x="424" y="1038" type="line"/>
      <point x="296" y="1038" type="line"/>
    </contour>
  </outline>
</glyph>
<glyph name="approxequal" format="2">
  <advance width="1180"/>
  <unicode hex="2248"/>
  <outline>
    <contour>
      <point x="160" y="771" type="line"/>
      <point x="256" y="881"/>
      <point x="302" y="901"/>
      <point x="388" y="901" type="curve" smooth="yes"/>
      <point x="513" y="901"/>
      <point x="637" y="771"/>
      <point x="792" y="771" type="curve" smooth="yes"/>
      <point x="888" y="771"/>
      <point x="954" y="801"/>
      <point x="1020" y="871" type="curve"/>
      <point x="1020" y="1035" type="line"/>
      <point x="924" y="925"/>
      <point x="878" y="895"/>
      <point x="792" y="895" type="curve" smooth="yes"/>
      <point x="667" y="895"/>
      <point x="543" y="1025"/>
      <point x="388" y="1025" type="curve" smooth="yes"/>
      <point x="292" y="1025"/>
      <point x="226" y="995"/>
      <point x="160" y="925" type="curve"/>
    </contour>
    <contour>
      <point x="160" y="417" type="line"/>
      <point x="256" y="527"/>
      <point x="302" y="547"/>
      <point x="388" y="547" type="curve" smooth="yes"/>
      <point x="513" y="547"/>
      <point x="637" y="417"/>
      <point x="792" y="417" type="curve" smooth="yes"/>
      <point x="888" y="417"/>
      <point x="954" y="447"/>
      <point x="1020" y="517" type="curve"/>
      <point x="1020" y="681" type="line"/>
      <point x="924" y="571"/>
      <point x="878" y="541"/>
      <point x="792" y="541" type="curve" smooth="yes"/>
      <point x="667" y="541"/>
      <point x="543" y="671"/>
      <point x="388" y="671" type="curve" smooth="yes"/>
      <point x="292" y="671"/>
      <point x="226" y="641"/>
      <point x="160" y="571" type="curve"/>
    </contour>
  </outline>
</glyph>
<glyph name="notequal" format="2">
  <advance width="1180"/>
  <unicode hex="2260"/>
  <outline>
    <component base="equal"/>
    <contour>
      <point x="346" y="199" type="line"/>
      <point x="974" y="1245" type="line"/>
      <point x="834" y="1245" type="line"/>
      <point x="206" y="199" type="line"/>
    </contour>
  </outline>
</glyph>
<glyph name="lessequal" format="2">
  <advance width="1180"/>
  <unicode hex="2264"/>
  <outline>
    <contour>
      <point x="1020" y="592" type="line"/>
      <point x="1020" y="722" type="line"/>
      <point x="235" y="928" type="line"/>
      <point x="235" y="906" type="line"/>
      <point x="1020" y="1112" type="line"/>
      <point x="1020" y="1242" type="line"/>
      <point x="160" y="999" type="line"/>
      <point x="160" y="835" type="line"/>
    </contour>
    <contour>
      <point x="160" y="313" type="line"/>
      <point x="1020" y="313" type="line"/>
      <point x="1020" y="437" type="line"/>
      <point x="160" y="437" type="line"/>
    </contour>
  </outline>
</glyph>
<glyph name="greaterequal" format="2">
  <advance width="1180"/>
  <unicode hex="2265"/>
  <outline>
    <contour>
      <point x="160" y="592" type="line"/>
      <point x="1020" y="835" type="line"/>
      <point x="1020" y="999" type="line"/>
      <point x="160" y="1242" type="line"/>
      <point x="160" y="1112" type="line"/>
      <point x="945" y="906" type="line"/>
      <point x="945" y="928" type="line"/>
      <point x="160" y="722" type="line"/>
    </contour>
    <contour>
      <point x="160" y="313" type="line"/>
      <point x="1020" y="313" type="line"/>
      <point x="1020" y="437" type="line"/>
      <point x="160" y="437" type="line"/>
    </contour>
  </outline>
</glyph>
<glyph name="lozenge" format="2">
  <advance width="951"/>
  <unicode hex="25CA"/>
  <outline>
    <contour>
      <point x="394" y="100" type="line"/>
      <point x="558" y="100" type="line"/>
      <point x="823" y="722" type="line"/>
      <point x="557" y="1346" type="line"/>
      <point x="393" y="1346" type="line"/>
      <point x="128" y="724" type="line"/>
    </contour>
    <contour>
      <point x="476" y="219" type="line"/>
      <point x="261" y="724" type="line"/>
      <point x="475" y="1227" type="line"/>
      <point x="690" y="722" type="line"/>
    </contour>
  </outline>
</glyph>
<glyph name="uniA902" format="2">
  <advance width="1180"/>
  <unicode hex="A902"/>
  <outline>
    <contour>
      <point x="662" y="0" type="line"/>
      <point x="1061" y="1048" type="line"/>
      <point x="928" y="1048" type="line"/>
      <point x="590" y="158" type="line"/>
      <point x="252" y="1048" type="line"/>
      <point x="119" y="1048" type="line"/>
      <point x="518" y="0" type="line"/>
    </contour>
  </outline>
</glyph>
<glyph name="uniA909" format="2">
  <advance width="1180"/>
  <unicode hex="A909"/>
  <outline>
    <component base="_klcircleNE" yOffset="-343"/>
    <component base="_klcircleSE"/>
    <component base="_klmidS"/>
    <component base="_klcircleSW"/>
    <component base="_klmidW"/>
    <component base="_klhookascW" yOffset="-524"/>
    <component base="_klsqNWshort" yOffset="-343"/>
    <contour>
      <point x="924" y="333" type="line"/>
      <point x="1052" y="333" type="line"/>
      <point x="1052" y="374" type="line"/>
      <point x="924" y="374" type="line"/>
    </contour>
  </outline>
</glyph>
<glyph name="uniA921" format="2">
  <advance width="1180"/>
  <unicode hex="A921"/>
  <outline>
    <component base="_klsqSW"/>
    <component base="_klsqWS"/>
    <component base="_klmidW"/>
    <component base="_klsqWN"/>
    <component base="_klsqES"/>
    <component base="_klmidE"/>
    <component base="_klascNE"/>
    <contour>
      <point x="1052" y="38" type="line"/>
      <point x="256" y="1050" type="line"/>
      <point x="128" y="1050" type="line"/>
      <point x="128" y="1013" type="line"/>
      <point x="924" y="0" type="line"/>
      <point x="924" y="0"/>
      <point x="1052" y="0"/>
      <point x="1052" y="0" type="curve"/>
    </contour>
  </outline>
</glyph>
<glyph name="uniA925" format="2">
  <advance width="1180"/>
  <unicode hex="A925"/>
  <outline>
    <component base="_klcircleSW"/>
    <component base="_klmidS"/>
    <component base="_klmidW"/>
    <component base="_klcircleSE"/>
    <component base="_klcircleNW"/>
    <component base="_klmidE"/>
    <component base="_klmidN"/>
    <component base="_klcircleNE"/>
    <contour>
      <point x="590" y="610" type="curve" smooth="yes"/>
      <point x="760" y="610"/>
      <point x="920" y="694"/>
      <point x="1000" y="814" type="curve"/>
      <point x="950" y="914" type="line"/>
      <point x="876" y="794"/>
      <point x="730" y="730"/>
      <point x="590" y="730" type="curve" smooth="yes"/>
      <point x="450" y="730"/>
      <point x="304" y="794"/>
      <point x="230" y="914" type="curve"/>
      <point x="180" y="814" type="line"/>
      <point x="260" y="694"/>
      <point x="420" y="610"/>
    </contour>
  </outline>
</glyph>
<glyph name="uniA92E" format="2">
  <advance width="1416"/>
  <unicode hex="A92E"/>
  <outline>
    <contour>
      <point x="108" y="0" type="curve"/>
      <point x="253" y="0" type="line"/>
      <point x="324" y="90"/>
      <point x="493" y="180"/>
      <point x="708" y="180" type="curve" smooth="yes"/>
      <point x="923" y="180"/>
      <point x="1092" y="90"/>
      <point x="1163" y="0" type="curve"/>
      <point x="1308" y="0" type="line"/>
      <point x="1218" y="170"/>
      <point x="978" y="300"/>
      <point x="708" y="300" type="curve" smooth="yes"/>
      <point x="438" y="300"/>
      <point x="198" y="170"/>
    </contour>
  </outline>
</glyph>
<glyph name="uniA92F" format="2">
  <advance width="416"/>
  <unicode hex="A92F"/>
  <outline>
    <contour>
      <point x="272" y="0" type="line"/>
      <point x="272" y="1050" type="line"/>
      <point x="144" y="1050" type="line"/>
      <point x="144" y="0" type="line"/>
    </contour>
  </outline>
</glyph>
<glyph name="_klcircleNW" format="2">
  <advance width="1180"/>
  <outline>
    <contour>
      <point x="128" y="712" type="line"/>
      <point x="256" y="712" type="line"/>
      <point x="256" y="783" type="line" smooth="yes"/>
      <point x="256" y="888"/>
      <point x="300" y="926"/>
      <point x="381" y="926" type="curve" smooth="yes"/>
      <point x="507" y="926" type="line"/>
      <point x="507" y="1050" type="line"/>
      <point x="361" y="1050" type="line" smooth="yes"/>
      <point x="218" y="1050"/>
      <point x="128" y="957"/>
      <point x="128" y="794" type="curve" smooth="yes"/>
    </contour>
  </outline>
</glyph>
<glyph name="_klcircleSE" format="2">
  <advance width="1180"/>
  <outline>
    <contour>
      <point x="673" y="0" type="line"/>
      <point x="819" y="0" type="line" smooth="yes"/>
      <point x="962" y="0"/>
      <point x="1052" y="92"/>
      <point x="1052" y="256" type="curve" smooth="yes"/>
      <point x="1052" y="338" type="line"/>
      <point x="924" y="338" type="line"/>
      <point x="924" y="266" type="line" smooth="yes"/>
      <point x="924" y="161"/>
      <point x="880" y="124"/>
      <point x="798" y="124" type="curve" smooth="yes"/>
      <point x="673" y="124" type="line"/>
    </contour>
  </outline>
</glyph>
<glyph name="_klcirclemidW" format="2">
  <advance width="1180"/>
  <outline>
    <contour>
      <point x="256" y="730" type="curve" smooth="yes"/>
      <point x="256" y="783" type="line" smooth="yes"/>
      <point x="256" y="888"/>
      <point x="300" y="926"/>
      <point x="381" y="926" type="curve" smooth="yes"/>
      <point x="507" y="926" type="line"/>
      <point x="507" y="1050" type="line"/>
      <point x="361" y="1050" type="line" smooth="yes"/>
      <point x="218" y="1050"/>
      <point x="128" y="957"/>
      <point x="128" y="794" type="curve" smooth="yes"/>
      <point x="128" y="730" type="line" smooth="yes"/>
      <point x="128" y="566"/>
      <point x="218" y="474"/>
      <point x="361" y="474" type="curve" smooth="yes"/>
      <point x="550" y="474" type="line"/>
      <point x="550" y="576" type="line"/>
      <point x="381" y="576" type="line" smooth="yes"/>
      <point x="312" y="576"/>
      <point x="256" y="625"/>
    </contour>
    <contour>
      <point x="256" y="266" type="curve" smooth="yes"/>
      <point x="256" y="320" type="line" smooth="yes"/>
      <point x="256" y="425"/>
      <point x="300" y="474"/>
      <point x="381" y="474" type="curve" smooth="yes"/>
      <point x="550" y="474" type="line"/>
      <point x="550" y="576" type="line"/>
      <point x="361" y="576" type="line" smooth="yes"/>
      <point x="218" y="576"/>
      <point x="128" y="484"/>
      <point x="128" y="320" type="curve" smooth="yes"/>
      <point x="128" y="256" type="line" smooth="yes"/>
      <point x="128" y="92"/>
      <point x="218" y="0"/>
      <point x="361" y="0" type="curve" smooth="yes"/>
      <point x="507" y="0" type="line"/>
      <point x="507" y="124" type="line"/>
      <point x="381" y="124" type="line" smooth="yes"/>
      <point x="300" y="124"/>
      <point x="256" y="161"/>
    </contour>
  </outline>
</glyph>
<glyph name="_kldesccomp" format="2">
  <advance width="1180"/>
  <outline>
    <contour>
      <point x="361" y="-525" type="curve" smooth="yes"/>
      <point x="507" y="-525" type="line"/>
      <point x="507" y="-401" type="line"/>
      <point x="381" y="-401" type="line" smooth="yes"/>
      <point x="300" y="-401"/>
      <point x="256" y="-365"/>
      <point x="256" y="-260" type="curve" smooth="yes"/>
      <point x="256" y="-167" type="line"/>
      <point x="128" y="-167" type="line"/>
      <point x="128" y="-270" type="line" smooth="yes"/>
      <point x="128" y="-434"/>
      <point x="218" y="-525"/>
    </contour>
    <contour>
      <point x="435" y="-525" type="line"/>
      <point x="744" y="-525" type="line"/>
      <point x="744" y="-401" type="line"/>
      <point x="435" y="-401" type="line"/>
    </contour>
    <contour>
      <point x="128" y="-219" type="line"/>
      <point x="256" y="-219" type="line"/>
      <point x="256" y="338" type="line"/>
      <point x="128" y="338" type="line"/>
    </contour>
    <contour>
      <point x="128" y="-242" type="line"/>
      <point x="461" y="-242" type="line"/>
      <point x="461" y="-140" type="line"/>
      <point x="128" y="-140" type="line"/>
    </contour>
    <contour>
      <point x="673" y="-525" type="line"/>
      <point x="819" y="-525" type="line" smooth="yes"/>
      <point x="962" y="-525"/>
      <point x="1052" y="-434"/>
      <point x="1052" y="-270" type="curve" smooth="yes"/>
      <point x="1052" y="-167" type="line"/>
      <point x="924" y="-167" type="line"/>
      <point x="924" y="-260" type="line" smooth="yes"/>
      <point x="924" y="-365"/>
      <point x="880" y="-401"/>
      <point x="798" y="-401" type="curve" smooth="yes"/>
      <point x="673" y="-401" type="line"/>
    </contour>
    <contour>
      <point x="924" y="-219" type="line"/>
      <point x="1052" y="-219" type="line"/>
      <point x="1052" y="338" type="line"/>
      <point x="924" y="338" type="line"/>
    </contour>
    <contour>
      <point x="719" y="-242" type="line"/>
      <point x="1052" y="-242" type="line"/>
      <point x="1052" y="-140" type="line"/>
      <point x="719" y="-140" type="line"/>
    </contour>
  </outline>
</glyph>
<glyph name="_kldescserifSE" format="2">
  <advance width="1180"/>
  <outline>
    <contour>
      <point x="435" y="-525" type="line"/>
      <point x="744" y="-525" type="line"/>
      <point x="744" y="-401" type="line"/>
      <point x="435" y="-401" type="line"/>
    </contour>
    <contour>
      <point x="673" y="-525" type="line"/>
      <point x="819" y="-525" type="line" smooth="yes"/>
      <point x="962" y="-525"/>
      <point x="1052" y="-433"/>
      <point x="1052" y="-269" type="curve" smooth="yes"/>
      <point x="1052" y="-166" type="line"/>
      <point x="924" y="-166" type="line"/>
      <point x="924" y="-259" type="line" smooth="yes"/>
      <point x="924" y="-364"/>
      <point x="880" y="-401"/>
      <point x="798" y="-401" type="curve" smooth="yes"/>
      <point x="673" y="-401" type="line"/>
    </contour>
    <contour>
      <point x="719" y="-241" type="line"/>
      <point x="988" y="-241" type="line"/>
      <point x="1052" y="-241" type="line"/>
      <point x="1052" y="-139" type="line"/>
      <point x="719" y="-139" type="line"/>
    </contour>
  </outline>
</glyph>
<glyph name="_kldiagNW" format="2">
  <advance width="1180"/>
  <outline>
    <contour>
      <point x="486" y="1050" type="line"/>
      <point x="442" y="1050" type="line"/>
      <point x="184" y="788" type="line"/>
      <point x="184" y="620" type="line"/>
      <point x="486" y="926" type="line"/>
    </contour>
  </outline>
</glyph>
<glyph name="_kldiagSE" format="2">
  <advance width="1180"/>
  <outline>
    <contour>
      <point x="458" y="124" type="line"/>
      <point x="458" y="0" type="line"/>
      <point x="504" y="0" type="line"/>
      <point x="988" y="484" type="line"/>
      <point x="988" y="653" type="line"/>
    </contour>
  </outline>
</glyph>
<glyph name="_kldiagcomp" format="2">
  <advance width="1180"/>
  <outline>
    <contour>
      <point x="128" y="378" type="line"/>
      <point x="128" y="301" type="line"/>
      <point x="128" y="301"/>
      <point x="256" y="301"/>
      <point x="256" y="301" type="curve"/>
      <point x="1052" y="678" type="line"/>
      <point x="1052" y="755" type="line"/>
      <point x="924" y="755" type="line"/>
    </contour>
    <contour>
      <point x="1052" y="378" type="line"/>
      <point x="256" y="755" type="line"/>
      <point x="128" y="755" type="line"/>
      <point x="128" y="678" type="line"/>
      <point x="924" y="301" type="line"/>
      <point x="924" y="301"/>
      <point x="1052" y="301"/>
      <point x="1052" y="301" type="curve"/>
    </contour>
    <contour>
      <point x="361" y="0" type="curve" smooth="yes"/>
      <point x="507" y="0" type="line"/>
      <point x="507" y="124" type="line"/>
      <point x="381" y="124" type="line" smooth="yes"/>
      <point x="300" y="124"/>
      <point x="256" y="161"/>
      <point x="256" y="266" type="curve" smooth="yes"/>
      <point x="256" y="338" type="line"/>
      <point x="128" y="338" type="line"/>
      <point x="128" y="256" type="line" smooth="yes"/>
      <point x="128" y="92"/>
      <point x="218" y="0"/>
    </contour>
    <contour>
      <point x="673" y="0" type="line"/>
      <point x="819" y="0" type="line" smooth="yes"/>
      <point x="962" y="0"/>
      <point x="1052" y="92"/>
      <point x="1052" y="256" type="curve" smooth="yes"/>
      <point x="1052" y="338" type="line"/>
      <point x="924" y="338" type="line"/>
      <point x="924" y="266" type="line" smooth="yes"/>
      <point x="924" y="161"/>
      <point x="880" y="124"/>
      <point x="798" y="124" type="curve" smooth="yes"/>
      <point x="673" y="124" type="line"/>
    </contour>
    <contour>
      <point x="128" y="712" type="line"/>
      <point x="256" y="712" type="line"/>
      <point x="256" y="783" type="line" smooth="yes"/>
      <point x="256" y="888"/>
      <point x="300" y="926"/>
      <point x="381" y="926" type="curve" smooth="yes"/>
      <point x="507" y="926" type="line"/>
      <point x="507" y="1050" type="line"/>
      <point x="361" y="1050" type="line" smooth="yes"/>
      <point x="218" y="1050"/>
      <point x="128" y="957"/>
      <point x="128" y="794" type="curve" smooth="yes"/>
    </contour>
    <contour>
      <point x="924" y="712" type="line"/>
      <point x="1052" y="712" type="line"/>
      <point x="1052" y="794" type="line" smooth="yes"/>
      <point x="1052" y="957"/>
      <point x="962" y="1050"/>
      <point x="819" y="1050" type="curve" smooth="yes"/>
      <point x="673" y="1050" type="line"/>
      <point x="673" y="926" type="line"/>
      <point x="798" y="926" type="line" smooth="yes"/>
      <point x="880" y="926"/>
      <point x="924" y="888"/>
      <point x="924" y="783" type="curve" smooth="yes"/>
    </contour>
    <contour>
      <point x="456" y="124" type="line"/>
      <point x="456" y="0" type="line"/>
      <point x="515" y="0" type="line"/>
      <point x="988" y="472" type="line"/>
      <point x="988" y="653" type="line"/>
    </contour>
    <contour>
      <point x="466" y="1050" type="line"/>
      <point x="422" y="1050" type="line"/>
      <point x="164" y="788" type="line"/>
      <point x="164" y="620" type="line"/>
      <point x="466" y="926" type="line"/>
    </contour>
  </outline>
</glyph>
<glyph name="_klhookascE" format="2">
  <advance width="1180"/>
  <outline>
    <contour>
      <point x="924" y="988" type="line"/>
      <point x="1052" y="988" type="line"/>
      <point x="1052" y="1472" type="line"/>
      <point x="924" y="1472" type="line"/>
    </contour>
    <contour>
      <point x="763" y="1308" type="line"/>
      <point x="929" y="1426" type="line"/>
      <point x="1052" y="1426" type="line"/>
      <point x="1052" y="1574" type="line"/>
      <point x="929" y="1574" type="line"/>
      <point x="763" y="1457" type="line"/>
    </contour>
  </outline>
</glyph>
<glyph name="_klloopflat" format="2">
  <advance width="1180"/>
  <outline>
    <contour>
      <point x="1052" y="378" type="line"/>
      <point x="796" y="378" type="line" smooth="yes"/>
      <point x="578" y="378"/>
      <point x="389" y="278"/>
      <point x="250" y="105" type="curve"/>
      <point x="358" y="105" type="line"/>
      <point x="449" y="180"/>
      <point x="552" y="264"/>
      <point x="770" y="264" type="curve" smooth="yes"/>
      <point x="770" y="264"/>
      <point x="979" y="264"/>
      <point x="979" y="264" type="curve" smooth="yes"/>
      <point x="979" y="264"/>
      <point x="1052" y="328"/>
      <point x="1052" y="328" type="curve"/>
    </contour>
  </outline>
</glyph>
<glyph name="_klmidE" format="2">
  <advance width="1180"/>
  <outline>
    <contour>
      <point x="924" y="333" type="line"/>
      <point x="1052" y="333" type="line"/>
      <point x="1052" y="717" type="line"/>
      <point x="924" y="717" type="line"/>
    </contour>
  </outline>
</glyph>
<glyph name="_klmidEN" format="2">
  <advance width="1180"/>
  <outline>
    <contour>
      <point x="924" y="525" type="line"/>
      <point x="1052" y="525" type="line"/>
      <point x="1052" y="717" type="line"/>
      <point x="924" y="717" type="line"/>
    </contour>
  </outline>
</glyph>
<glyph name="_klmidW" format="2">
  <advance width="1180"/>
  <outline>
    <contour>
      <point x="128" y="333" type="line"/>
      <point x="256" y="333" type="line"/>
      <point x="256" y="717" type="line"/>
      <point x="128" y="717" type="line"/>
    </contour>
  </outline>
</glyph>
<glyph name="_klmidline" format="2">
  <advance width="1180"/>
  <outline>
    <contour>
      <point x="128" y="474" type="line"/>
      <point x="1052" y="474" type="line"/>
      <point x="1052" y="576" type="line"/>
      <point x="128" y="576" type="line"/>
    </contour>
  </outline>
</glyph>
<glyph name="_klserifE" format="2">
  <advance width="1180"/>
  <outline>
    <contour>
      <point x="924" y="0" type="line"/>
      <point x="1144" y="0" type="line"/>
      <point x="1144" y="124" type="line"/>
      <point x="924" y="124" type="line"/>
    </contour>
  </outline>
</glyph>
<glyph name="_klserifENshort" format="2">
  <advance width="1180"/>
  <outline>
    <contour>
      <point x="757" y="614" type="line"/>
      <point x="1052" y="614" type="line"/>
      <point x="1052" y="716" type="line"/>
      <point x="988" y="716" type="line"/>
      <point x="757" y="716" type="line"/>
    </contour>
  </outline>
</glyph>
<glyph name="_klserifW" format="2">
  <advance width="1180"/>
  <outline>
    <contour>
      <point x="33" y="0" type="line"/>
      <point x="256" y="0" type="line"/>
      <point x="256" y="124" type="line"/>
      <point x="33" y="124" type="line"/>
    </contour>
  </outline>
</glyph>
<glyph name="_klserifWNshort" format="2">
  <advance width="1180"/>
  <outline>
    <contour>
      <point x="128" y="614" type="line"/>
      <point x="423" y="614" type="line"/>
      <point x="423" y="716" type="line"/>
      <point x="192" y="716" type="line"/>
      <point x="128" y="716" type="line"/>
    </contour>
  </outline>
</glyph>
<glyph name="_klserifWSshort" format="2">
  <advance width="1180"/>
  <outline>
    <contour>
      <point x="128" y="334" type="line"/>
      <point x="192" y="334" type="line"/>
      <point x="423" y="334" type="line"/>
      <point x="423" y="436" type="line"/>
      <point x="128" y="436" type="line"/>
    </contour>
  </outline>
</glyph>
<glyph name="_klsqEN" format="2">
  <advance width="1180"/>
  <outline>
    <contour>
      <point x="924" y="712" type="line"/>
      <point x="1052" y="712" type="line"/>
      <point x="1052" y="1050" type="line"/>
      <point x="924" y="1050" type="line"/>
    </contour>
  </outline>
</glyph>
<glyph name="_klsqNEshort" format="2">
  <advance width="1180"/>
  <outline>
    <contour>
      <point x="763" y="926" type="line"/>
      <point x="1052" y="926" type="line"/>
      <point x="1052" y="1050" type="line"/>
      <point x="763" y="1050" type="line"/>
    </contour>
  </outline>
</glyph>
<glyph name="_klsqNW" format="2">
  <advance width="1180"/>
  <outline>
    <contour>
      <point x="128" y="926" type="line"/>
      <point x="487" y="926" type="line"/>
      <point x="487" y="1050" type="line"/>
      <point x="128" y="1050" type="line"/>
    </contour>
  </outline>
</glyph>
<glyph name="_klsqNWshort" format="2">
  <advance width="1180"/>
  <outline>
    <contour>
      <point x="128" y="926" type="line"/>
      <point x="417" y="926" type="line"/>
      <point x="417" y="1050" type="line"/>
      <point x="128" y="1050" type="line"/>
    </contour>
  </outline>
</glyph>
<glyph name="_klsqSWshort" format="2">
  <advance width="1180"/>
  <outline>
    <contour>
      <point x="128" y="0" type="line"/>
      <point x="417" y="0" type="line"/>
      <point x="417" y="124" type="line"/>
      <point x="128" y="124" type="line"/>
    </contour>
  </outline>
</glyph>
<glyph name="_klsqWN" format="2">
  <advance width="1180"/>
  <outline>
    <contour>
      <point x="128" y="712" type="line"/>
      <point x="256" y="712" type="line"/>
      <point x="256" y="1050" type="line"/>
      <point x="128" y="1050" type="line"/>
    </contour>
  </outline>
</glyph>
<glyph name="_klsquarecomp" format="2">
  <advance width="1180"/>
  <outline>
    <contour>
      <point x="128" y="474" type="line"/>
      <point x="1053" y="474" type="line"/>
      <point x="1053" y="576" type="line"/>
      <point x="128" y="576" type="line"/>
    </contour>
    <contour>
      <point x="128" y="0" type="line"/>
      <point x="486" y="0" type="line"/>
      <point x="486" y="124" type="line"/>
      <point x="128" y="124" type="line"/>
    </contour>
    <contour>
      <point x="128" y="0" type="line"/>
      <point x="256" y="0" type="line"/>
      <point x="256" y="338" type="line"/>
      <point x="128" y="338" type="line"/>
    </contour>
    <contour>
      <point x="435" y="0" type="line"/>
      <point x="745" y="0" type="line"/>
      <point x="745" y="124" type="line"/>
      <point x="435" y="124" type="line"/>
    </contour>
    <contour>
      <point x="128" y="333" type="line"/>
      <point x="256" y="333" type="line"/>
      <point x="256" y="717" type="line"/>
      <point x="128" y="717" type="line"/>
    </contour>
    <contour>
      <point x="694" y="0" type="line"/>
      <point x="1053" y="0" type="line"/>
      <point x="1053" y="124" type="line"/>
      <point x="694" y="124" type="line"/>
    </contour>
    <contour>
      <point x="128" y="712" type="line"/>
      <point x="256" y="712" type="line"/>
      <point x="256" y="1050" type="line"/>
      <point x="128" y="1050" type="line"/>
    </contour>
    <contour>
      <point x="925" y="0" type="line"/>
      <point x="1053" y="0" type="line"/>
      <point x="1053" y="338" type="line"/>
      <point x="925" y="338" type="line"/>
    </contour>
    <contour>
      <point x="128" y="926" type="line"/>
      <point x="486" y="926" type="line"/>
      <point x="486" y="1050" type="line"/>
      <point x="128" y="1050" type="line"/>
    </contour>
    <contour>
      <point x="128" y="988" type="line"/>
      <point x="256" y="988" type="line"/>
      <point x="256" y="1472" type="line"/>
      <point x="128" y="1472" type="line"/>
    </contour>
    <contour>
      <point x="925" y="333" type="line"/>
      <point x="1053" y="333" type="line"/>
      <point x="1053" y="717" type="line"/>
      <point x="925" y="717" type="line"/>
    </contour>
    <contour>
      <point x="435" y="926" type="line"/>
      <point x="745" y="926" type="line"/>
      <point x="745" y="1050" type="line"/>
      <point x="435" y="1050" type="line"/>
    </contour>
    <contour>
      <point x="404" y="1318" type="line"/>
      <point x="404" y="1467" type="line"/>
      <point x="251" y="1574" type="line"/>
      <point x="128" y="1574" type="line"/>
      <point x="128" y="1426" type="line"/>
      <point x="251" y="1426" type="line"/>
    </contour>
    <contour>
      <point x="925" y="712" type="line"/>
      <point x="1053" y="712" type="line"/>
      <point x="1053" y="1050" type="line"/>
      <point x="925" y="1050" type="line"/>
    </contour>
    <contour>
      <point x="694" y="926" type="line"/>
      <point x="1053" y="926" type="line"/>
      <point x="1053" y="1050" type="line"/>
      <point x="694" y="1050" type="line"/>
    </contour>
    <contour>
      <point x="925" y="988" type="line"/>
      <point x="1053" y="988" type="line"/>
      <point x="1053" y="1472" type="line"/>
      <point x="925" y="1472" type="line"/>
    </contour>
    <contour>
      <point x="776" y="1318" type="line"/>
      <point x="930" y="1426" type="line"/>
      <point x="1053" y="1426" type="line"/>
      <point x="1053" y="1574" type="line"/>
      <point x="930" y="1574" type="line"/>
      <point x="776" y="1467" type="line"/>
    </contour>
    <contour>
      <point x="33" y="0" type="line"/>
      <point x="256" y="0" type="line"/>
      <point x="256" y="124" type="line"/>
      <point x="33" y="124" type="line"/>
    </contour>
    <contour>
      <point x="925" y="0" type="line"/>
      <point x="1147" y="0" type="line"/>
      <point x="1147" y="124" type="line"/>
      <point x="925" y="124" type="line"/>
    </contour>
  </outline>
</glyph>
<glyph name="_latarchE" format="2">
  <advance width="1164"/>
  <outline>
    <contour>
      <point x="844" y="512" type="line"/>
      <point x="972" y="512" type="line"/>
      <point x="972" y="624" type="line" smooth="yes"/>
      <point x="972" y="907"/>
      <point x="915" y="1050"/>
      <point x="680" y="1050" type="curve" smooth="yes"/>
      <point x="479" y="1050"/>
      <point x="300" y="829"/>
      <point x="254" y="699" type="curve"/>
      <point x="336" y="700" type="line"/>
      <point x="373" y="758"/>
      <point x="517" y="926"/>
      <point x="670" y="926" type="curve" smooth="yes"/>
      <point x="815" y="926"/>
      <point x="844" y="847"/>
      <point x="844" y="602" type="curve" smooth="yes"/>
    </contour>
  </outline>
</glyph>
<glyph name="_latbowlE" format="2">
  <advance width="1164"/>
  <outline>
    <contour>
      <point x="680" y="-12" type="curve" smooth="yes"/>
      <point x="915" y="-12"/>
      <point x="972" y="143"/>
      <point x="972" y="426" type="curve" smooth="yes"/>
      <point x="972" y="538" type="line"/>
      <point x="844" y="538" type="line"/>
      <point x="844" y="448" type="line" smooth="yes"/>
      <point x="844" y="203"/>
      <point x="815" y="112"/>
      <point x="670" y="112" type="curve" smooth="yes"/>
      <point x="517" y="112"/>
      <point x="373" y="292"/>
      <point x="336" y="350" type="curve"/>
      <point x="254" y="351" type="line"/>
      <point x="300" y="221"/>
      <point x="479" y="-12"/>
    </contour>
  </outline>
</glyph>
<glyph name="_latbowlW" format="2">
  <advance width="1164"/>
  <outline>
    <contour>
      <point x="500" y="-12" type="curve" smooth="yes"/>
      <point x="701" y="-12"/>
      <point x="880" y="221"/>
      <point x="926" y="351" type="curve"/>
      <point x="844" y="350" type="line"/>
      <point x="807" y="292"/>
      <point x="663" y="112"/>
      <point x="510" y="112" type="curve" smooth="yes"/>
      <point x="365" y="112"/>
      <point x="336" y="203"/>
      <point x="336" y="448" type="curve" smooth="yes"/>
      <point x="336" y="538" type="line"/>
      <point x="208" y="538" type="line"/>
      <point x="208" y="426" type="line" smooth="yes"/>
      <point x="208" y="143"/>
      <point x="265" y="-12"/>
    </contour>
  </outline>
</glyph>
<glyph name="_latcirNW" format="2">
  <advance width="1020"/>
  <outline>
    <contour>
      <point x="108" y="522" type="line"/>
      <point x="236" y="522" type="line"/>
      <point x="236" y="543" type="line" smooth="yes"/>
      <point x="236" y="778"/>
      <point x="288" y="926"/>
      <point x="496" y="926" type="curve" smooth="yes"/>
      <point x="512" y="926" type="line"/>
      <point x="512" y="1050" type="line"/>
      <point x="486" y="1050" type="line" smooth="yes"/>
      <point x="223" y="1050"/>
      <point x="108" y="877"/>
      <point x="108" y="554" type="curve" smooth="yes"/>
    </contour>
  </outline>
</glyph>
<glyph name="_latcirSE" format="2">
  <advance width="1020"/>
  <outline>
    <contour>
      <point x="508" y="-12" type="line"/>
      <point x="534" y="-12" type="line" smooth="yes"/>
      <point x="797" y="-12"/>
      <point x="912" y="172"/>
      <point x="912" y="496" type="curve" smooth="yes"/>
      <point x="912" y="528" type="line"/>
      <point x="784" y="528" type="line"/>
      <point x="784" y="506" type="line" smooth="yes"/>
      <point x="784" y="271"/>
      <point x="731" y="112"/>
      <point x="523" y="112" type="curve" smooth="yes"/>
      <point x="508" y="112" type="line"/>
    </contour>
  </outline>
</glyph>
<glyph name="_latcirSW" format="2">
  <advance width="1020"/>
  <outline>
    <contour>
      <point x="486" y="-12" type="curve" smooth="yes"/>
      <point x="512" y="-12" type="line"/>
      <point x="512" y="112" type="line"/>
      <point x="496" y="112" type="line" smooth="yes"/>
      <point x="288" y="112"/>
      <point x="236" y="271"/>
      <point x="236" y="506" type="curve" smooth="yes"/>
      <point x="236" y="528" type="line"/>
      <point x="108" y="528" type="line"/>
      <point x="108" y="496" type="line" smooth="yes"/>
      <point x="108" y="172"/>
      <point x="223" y="-12"/>
    </contour>
  </outline>
</glyph>
<glyph name="_latcrossbar" format="2">
  <advance width="765"/>
  <outline>
    <contour>
      <point x="96" y="914" type="line"/>
      <point x="669" y="914" type="line"/>
      <point x="669" y="1038" type="line"/>
      <point x="96" y="1038" type="line"/>
    </contour>
  </outline>
</glyph>
<glyph name="_latcurveSE" format="2">
  <advance width="996"/>
  <outline>
    <contour>
      <point x="508" y="-12" type="line"/>
      <point x="535" y="-12" type="line" smooth="yes"/>
      <point x="788" y="-12"/>
      <point x="888" y="162"/>
      <point x="888" y="288" type="curve"/>
      <point x="888" y="305" type="line"/>
      <point x="755" y="305" type="line"/>
      <point x="755" y="298" type="line"/>
      <point x="755" y="235"/>
      <point x="716" y="112"/>
      <point x="524" y="112" type="curve" smooth="yes"/>
      <point x="508" y="112" type="line"/>
    </contour>
  </outline>
</glyph>
<glyph name="_latdot" format="2">
  <advance width="604"/>
  <outline>
    <contour>
      <point x="208" y="1272" type="line"/>
      <point x="396" y="1272" type="line"/>
      <point x="396" y="1460" type="line"/>
      <point x="208" y="1460" type="line"/>
    </contour>
  </outline>
</glyph>
<glyph name="_lathalfserifNW" format="2">
  <advance width="1144"/>
  <outline>
    <contour>
      <point x="48" y="914" type="line"/>
      <point x="272" y="914" type="line"/>
      <point x="272" y="1038" type="line"/>
      <point x="48" y="1038" type="line"/>
    </contour>
  </outline>
</glyph>
<glyph name="_latroundarchE" format="2">
  <advance width="1144"/>
  <outline>
    <contour>
      <point x="844" y="512" type="line"/>
      <point x="972" y="512" type="line"/>
      <point x="972" y="614" type="line" smooth="yes"/>
      <point x="972" y="877"/>
      <point x="875" y="1050"/>
      <point x="640" y="1050" type="curve" smooth="yes"/>
      <point x="439" y="1050"/>
      <point x="300" y="859"/>
      <point x="254" y="729" type="curve"/>
      <point x="336" y="730" type="line"/>
      <point x="373" y="788"/>
      <point x="487" y="926"/>
      <point x="640" y="926" type="curve" smooth="yes"/>
      <point x="785" y="926"/>
      <point x="844" y="817"/>
      <point x="844" y="602" type="curve" smooth="yes"/>
    </contour>
  </outline>
</glyph>
<glyph name="_latroundarchW" format="2">
  <advance width="1144"/>
  <outline>
    <contour>
      <point x="108" y="512" type="line"/>
      <point x="236" y="512" type="line"/>
      <point x="236" y="602" type="line" smooth="yes"/>
      <point x="236" y="817"/>
      <point x="295" y="926"/>
      <point x="440" y="926" type="curve" smooth="yes"/>
      <point x="593" y="926"/>
      <point x="707" y="788"/>
      <point x="744" y="730" type="curve"/>
      <point x="826" y="729" type="line"/>
      <point x="780" y="859"/>
      <point x="641" y="1050"/>
      <point x="440" y="1050" type="curve" smooth="yes"/>
      <point x="205" y="1050"/>
      <point x="108" y="877"/>
      <point x="108" y="614" type="curve" smooth="yes"/>
    </contour>
  </outline>
</glyph>
<glyph name="_latroundbowlE" format="2">
  <advance width="1144"/>
  <outline>
    <contour>
      <point x="640" y="-12" type="curve" smooth="yes"/>
      <point x="875" y="-12"/>
      <point x="972" y="161"/>
      <point x="972" y="424" type="curve" smooth="yes"/>
      <point x="972" y="538" type="line"/>
      <point x="844" y="538" type="line"/>
      <point x="844" y="436" type="line" smooth="yes"/>
      <point x="844" y="221"/>
      <point x="785" y="112"/>
      <point x="640" y="112" type="curve" smooth="yes"/>
      <point x="487" y="112"/>
      <point x="373" y="250"/>
      <point x="336" y="308" type="curve"/>
      <point x="254" y="309" type="line"/>
      <point x="300" y="179"/>
      <point x="439" y="-12"/>
    </contour>
  </outline>
</glyph>
<glyph name="_latroundbowlW" format="2">
  <advance width="1144"/>
  <outline>
    <contour>
      <point x="440" y="-12" type="curve" smooth="yes"/>
      <point x="641" y="-12"/>
      <point x="780" y="179"/>
      <point x="826" y="309" type="curve"/>
      <point x="744" y="308" type="line"/>
      <point x="707" y="250"/>
      <point x="593" y="112"/>
      <point x="440" y="112" type="curve" smooth="yes"/>
      <point x="295" y="112"/>
      <point x="236" y="221"/>
      <point x="236" y="436" type="curve" smooth="yes"/>
      <point x="236" y="538" type="line"/>
      <point x="108" y="538" type="line"/>
      <point x="108" y="424" type="line" smooth="yes"/>
      <point x="108" y="161"/>
      <point x="205" y="-12"/>
    </contour>
  </outline>
</glyph>
<glyph name="_latserifNE" format="2">
  <advance width="1180"/>
  <outline>
    <contour>
      <point x="684" y="914" type="line"/>
      <point x="1132" y="914" type="line"/>
      <point x="1132" y="1038" type="line"/>
      <point x="684" y="1038" type="line"/>
    </contour>
  </outline>
</glyph>
<glyph name="_latserifSW" format="2">
  <advance width="1180"/>
  <outline>
    <contour>
      <point x="48" y="0" type="line"/>
      <point x="496" y="0" type="line"/>
      <point x="496" y="124" type="line"/>
      <point x="48" y="124" type="line"/>
    </contour>
  </outline>
</glyph>
<glyph name="_latstemNE" format="2">
  <advance width="1180"/>
  <outline>
    <contour>
      <point x="844" y="512" type="line"/>
      <point x="972" y="512" type="line"/>
      <point x="972" y="1038" type="line"/>
      <point x="844" y="1038" type="line"/>
    </contour>
  </outline>
</glyph>
<glyph name="_latstemNW" format="2">
  <advance width="1180"/>
  <outline>
    <contour>
      <point x="208" y="512" type="line"/>
      <point x="336" y="512" type="line"/>
      <point x="336" y="1038" type="line"/>
      <point x="208" y="1038" type="line"/>
    </contour>
  </outline>
</glyph>
<glyph name="_latstemSE" format="2">
  <advance width="1180"/>
  <outline>
    <contour>
      <point x="844" y="0" type="line"/>
      <point x="972" y="0" type="line"/>
      <point x="972" y="538" type="line"/>
      <point x="844" y="538" type="line"/>
    </contour>
  </outline>
</glyph>
<glyph name="_latstemSW" format="2">
  <advance width="1180"/>
  <outline>
    <contour>
      <point x="208" y="0" type="line"/>
      <point x="336" y="0" type="line"/>
      <point x="336" y="538" type="line"/>
      <point x="208" y="538" type="line"/>
    </contour>
  </outline>
</glyph>
<glyph name="_latstemascW" format="2">
  <advance width="1180"/>
  <outline>
    <contour>
      <point x="208" y="986" type="line"/>
      <point x="336" y="986" type="line"/>
      <point x="336" y="1574" type="line"/>
      <point x="208" y="1574" type="line"/>
    </contour>
  </outline>
</glyph>
<glyph name="_latstemdescW" format="2">
  <advance width="1180"/>
  <outline>
    <contour>
      <point x="208" y="-512" type="line"/>
      <point x="336" y="-512" type="line"/>
      <point x="336" y="62" type="line"/>
      <point x="208" y="62" type="line"/>
    </contour>
  </outline>
</glyph>
<glyph name="_punctasterline" format="2">
  <advance width="1020"/>
  <outline>
    <contour>
      <point x="458" y="794" type="line"/>
      <point x="562" y="794" type="line"/>
      <point x="532" y="1184" type="line"/>
      <point x="562" y="1574" type="line"/>
      <point x="458" y="1574" type="line"/>
      <point x="488" y="1184" type="line"/>
    </contour>
  </outline>
</glyph>
